<svg xmlns="http://www.w3.org/2000/svg" viewBox="0 0 400 300"><g id="_465_science_flatline" data-name="#465_science_flatline"><path d="M317,149.34l4.79-11.55s-.21-14.92,1.72-16a2.45,2.45,0,0,1,3.62,1.69c.29,1.13.71,7.18.71,7.18s9.71-16.05,11.26-16.19,3.24-.14,3,1.69c0,0,2.53-1,3.52,1.27,0,0,2.95-1.13,3.52,1.55,0,0,1.69-.85,2,1.41s-14.47,34.41-14.47,34.41" fill="#fff"/><path d="M336.56,155.27a.54.54,0,0,1-.21-.05.52.52,0,0,1-.25-.69c5.64-12.31,14.55-32.47,14.41-34.13,0-.38-.17-.88-.47-1a1,1,0,0,0-.75,0,.53.53,0,0,1-.46,0,.52.52,0,0,1-.28-.35,1.63,1.63,0,0,0-.76-1.18,3,3,0,0,0-2.07,0,.52.52,0,0,1-.66-.27c-.75-1.74-2.64-1.08-2.86-1a.51.51,0,0,1-.69-.56,1,1,0,0,0-.14-.82c-.41-.44-1.71-.32-2.26-.27-1,.39-6.32,8.42-10.87,15.94a.52.52,0,0,1-.56.24.54.54,0,0,1-.4-.47c-.11-1.67-.46-6.2-.69-7.09a2.44,2.44,0,0,0-1.27-1.55,1.71,1.71,0,0,0-1.59.18c-1,.6-1.56,8.56-1.47,15.6a.45.45,0,0,1,0,.2l-4.78,11.55a.52.52,0,0,1-.68.27.51.51,0,0,1-.28-.67l4.75-11.45c-.05-3.69,0-15.22,2-16.39a2.7,2.7,0,0,1,2.51-.24,3.49,3.49,0,0,1,1.88,2.25c.19.79.45,3.77.59,5.66,3.75-6.12,9.36-14.93,10.82-15.06,1.14-.1,2.41-.15,3.11.59a1.67,1.67,0,0,1,.43.94,3,3,0,0,1,3.25,1.33,3.51,3.51,0,0,1,2.49.19,2.47,2.47,0,0,1,1.12,1.33,1.68,1.68,0,0,1,1.11.16,2.21,2.21,0,0,1,1,1.82c.28,2.29-12,29.3-14.51,34.69A.51.51,0,0,1,336.56,155.27Z" fill="#231f20"/><polygon points="306.62 158.44 311.88 145.81 340.33 154.12 333.27 168.85 306.62 158.44" fill="#231f20"/><path d="M333.27,169.35a.57.57,0,0,1-.18,0l-26.65-10.41a.5.5,0,0,1-.28-.27.53.53,0,0,1,0-.39l5.26-12.64a.49.49,0,0,1,.59-.28l28.46,8.32a.49.49,0,0,1,.31.27.51.51,0,0,1,0,.42l-7.06,14.73A.48.48,0,0,1,333.27,169.35Zm-26-11.18L333,168.22l6.61-13.78-27.47-8Z" fill="#231f20"/><path d="M256.14,174.36l25,13.12L306,149.34s37.16,11.6,36.6,13.23-33.79,78.79-56.31,71.24S244,220.29,244,220.29Z" fill="#68e1fd"/><path d="M332.76,142a.46.46,0,0,1-.23,0,.52.52,0,0,1-.24-.69,6.12,6.12,0,0,0,.45-4.81c-1.15-3.39-5.13-5.39-5.17-5.41a.52.52,0,0,1,.46-.93c.18.09,4.41,2.21,5.69,6a7.14,7.14,0,0,1-.5,5.6A.51.51,0,0,1,332.76,142Z" fill="#231f20"/><path d="M83,148.34l-4.79-11.55s.21-14.92-1.72-16a2.45,2.45,0,0,0-3.62,1.69c-.29,1.13-.71,7.18-.71,7.18s-9.71-16.05-11.26-16.19-3.24-.14-3,1.69c0,0-2.53-1-3.52,1.27,0,0-3-1.13-3.52,1.55,0,0-1.69-.85-2,1.41s15.23,37,15.23,37" fill="#fff"/><path d="M64.2,156.85a.53.53,0,0,1-.47-.31c-2.6-5.82-15.55-35-15.27-37.27a2.21,2.21,0,0,1,1-1.82,1.68,1.68,0,0,1,1.11-.16A2.47,2.47,0,0,1,51.71,116a3.51,3.51,0,0,1,2.49-.19,3,3,0,0,1,3.25-1.33,1.67,1.67,0,0,1,.43-.94c.7-.74,2-.69,3.11-.59,1.46.13,7.07,8.94,10.82,15.06.14-1.89.4-4.87.6-5.66a3.45,3.45,0,0,1,1.87-2.25,2.73,2.73,0,0,1,2.51.24c2,1.17,2,12.7,2,16.39l4.75,11.45a.51.51,0,0,1-.28.67.52.52,0,0,1-.68-.27L77.78,137a.45.45,0,0,1,0-.2c.09-7-.44-15-1.47-15.6a1.71,1.71,0,0,0-1.59-.18,2.44,2.44,0,0,0-1.27,1.55c-.23.89-.58,5.42-.69,7.09a.54.54,0,0,1-.4.47.52.52,0,0,1-.56-.24c-4.55-7.52-9.88-15.55-10.91-15.95-.51,0-1.81-.16-2.22.28a1,1,0,0,0-.14.83.49.49,0,0,1-.18.47.5.5,0,0,1-.51.08c-.22-.08-2.11-.74-2.86,1a.52.52,0,0,1-.66.27,3,3,0,0,0-2.08,0,1.6,1.6,0,0,0-.75,1.17.52.52,0,0,1-.28.35.53.53,0,0,1-.46,0,1,1,0,0,0-.75,0c-.31.17-.43.66-.48,1-.11,1.7,9.26,23.43,15.19,36.72a.51.51,0,0,1-.26.68A.54.54,0,0,1,64.2,156.85Z" fill="#231f20"/><polygon points="93.38 157.44 88.13 144.81 59.67 153.12 66.73 167.85 93.38 157.44" fill="#231f20"/><path d="M66.73,168.35a.48.48,0,0,1-.45-.28l-7.06-14.73a.51.51,0,0,1,0-.42.49.49,0,0,1,.31-.27L88,144.33a.49.49,0,0,1,.59.28l5.26,12.64a.53.53,0,0,1,0,.39.5.5,0,0,1-.28.27L66.91,168.32A.57.57,0,0,1,66.73,168.35Zm-6.36-14.91L67,167.22l25.75-10.05-4.89-11.76Z" fill="#231f20"/><path d="M187.76,88.15s-6.95-7.14-14.83,0S162.79,105,158.1,105.79c0,0,2.33,1.88,7.83-1.69,0,0,1.55,6.5-4.27,9.73,0,0,5.64-.72,6.76-1.1s-4.13,7-7.88,7.93,5.82,6.14,12.39,5.86S191.82,106.16,191.1,99,187.76,88.15,187.76,88.15Z" fill="#fff"/><path d="M172.44,127.05c-5.42,0-13-3.41-13.25-5.54-.05-.31,0-1.06,1.23-1.35,2.67-.64,6.27-5,7.33-6.73-1.92.38-5.83.88-6,.91a.52.52,0,0,1-.56-.35.54.54,0,0,1,.24-.62,8.17,8.17,0,0,0,4.13-8.42c-5.28,3.16-7.66,1.32-7.77,1.24a.53.53,0,0,1-.17-.53.5.5,0,0,1,.42-.38c2.23-.36,4-3.17,6.19-6.72a48.46,48.46,0,0,1,8.37-10.8c8.16-7.38,15.47-.05,15.55,0l.05.06c.11.16,2.71,4,3.44,11.13.52,5.18-5.29,16.2-10.83,22.59-2.11,2.43-5.18,5.36-7.84,5.47Zm-3.95-14.85a.61.61,0,0,1,.41.16.66.66,0,0,1,.16.71c-.39,1.46-5,7.27-8.4,8.09-.38.09-.45.2-.45.2s0,.2.3.48c1.66,1.78,7.87,4.36,12.4,4.17,1.78-.08,4.3-1.89,7.1-5.11,5.88-6.79,11-17.39,10.58-21.82a24.85,24.85,0,0,0-3.23-10.61c-.56-.55-6.86-6.48-14.09.06-3.69,3.33-6.18,7.35-8.19,10.57-1.88,3-3.44,5.54-5.37,6.65,1.14.08,3.07-.23,5.94-2.08a.52.52,0,0,1,.47,0,.53.53,0,0,1,.31.36c0,.06,1.25,5.48-2.75,9a46.1,46.1,0,0,0,4.58-.78A.68.68,0,0,1,168.49,112.2Z" fill="#231f20"/><path d="M218.41,88.15s6.94-7.14,14.83,0,10.13,16.89,14.83,17.64c0,0-2.33,1.88-7.83-1.69,0,0-1.56,6.5,4.26,9.73,0,0-5.63-.72-6.76-1.1s4.13,7,7.89,7.93-5.82,6.14-12.39,5.86S214.34,106.16,215.06,99,218.41,88.15,218.41,88.15Z" fill="#fff"/><path d="M233.72,127.05h-.5c-2.66-.11-5.73-3-7.84-5.47C219.83,115.18,214,104.16,214.55,99c.72-7.18,3.33-11,3.44-11.13l0-.06c.07-.08,7.38-7.41,15.54,0A48.23,48.23,0,0,1,242,98.56c2.21,3.55,3.95,6.36,6.19,6.72a.53.53,0,0,1,.42.38.52.52,0,0,1-.18.53c-.1.08-2.49,1.91-7.77-1.24a8.19,8.19,0,0,0,4.13,8.42.52.52,0,0,1,.24.62.53.53,0,0,1-.56.35c-.19,0-4.1-.53-6-.91,1.07,1.75,4.67,6.09,7.34,6.73,1.24.29,1.27,1,1.23,1.35C246.68,123.64,239.15,127.05,233.72,127.05ZM218.81,88.47a24.71,24.71,0,0,0-3.24,10.61c-.44,4.43,4.7,15,10.59,21.82,2.79,3.22,5.31,5,7.1,5.11,4.53.19,10.74-2.39,12.39-4.17a1,1,0,0,0,.31-.49h0a1,1,0,0,0-.45-.19c-3.44-.82-8-6.63-8.4-8.09a.68.68,0,0,1,.15-.71.65.65,0,0,1,.65-.12,41.72,41.72,0,0,0,4.58.79c-4-3.57-2.77-9-2.75-9a.49.49,0,0,1,.31-.36.52.52,0,0,1,.47,0c2.86,1.85,4.79,2.16,5.94,2.08-1.94-1.11-3.5-3.62-5.38-6.65a47,47,0,0,0-8.19-10.57C225.64,82,219.37,87.92,218.81,88.47Z" fill="#231f20"/><path d="M248.67,267.15l7.47-92.79c-15.38-9.91-38.41-18-66.75-17,0,0-31,7.36-44.84,18.29l7.38,91.46Z" fill="#68e1fd"/><path d="M199.15,244.79a.48.48,0,0,1-.38-.18l-33-40.71a.5.5,0,0,1,0-.64l14-16.07-17.22-5a.49.49,0,0,1-.34-.34.47.47,0,0,1,.11-.47l15-16.53a.5.5,0,0,1,.71,0,.49.49,0,0,1,0,.7l-14.51,15.94,17.21,5a.46.46,0,0,1,.33.33.5.5,0,0,1-.1.47L166.78,203.6,199.54,244a.5.5,0,0,1-.07.7A.56.56,0,0,1,199.15,244.79Z" fill="#231f20"/><path d="M205.9,241a.47.47,0,0,1-.34-.13.5.5,0,0,1,0-.71l31.08-32.89-13.55-15.44a.49.49,0,0,1-.12-.38.5.5,0,0,1,.18-.34l16.92-13.41L222,165.57a.5.5,0,1,1,.55-.83l18.64,12.55a.48.48,0,0,1,.22.39.48.48,0,0,1-.19.41l-17,13.5L237.67,207a.5.5,0,0,1,0,.67l-31.4,33.23A.51.51,0,0,1,205.9,241Z" fill="#231f20"/><path d="M184.62,170.33l17.54,74,15.53-72.81S196.15,172.77,184.62,170.33Z" fill="#231f20"/><path d="M202.16,244.79a.49.49,0,0,1-.48-.38l-17.55-74a.51.51,0,0,1,.13-.47.52.52,0,0,1,.46-.14c11.33,2.4,32.72,1.16,32.94,1.14a.55.55,0,0,1,.41.18.49.49,0,0,1,.11.42L202.65,244.4a.5.5,0,0,1-.48.39ZM185.28,171,202.14,242l14.93-70C213.46,172.2,195.74,173,185.28,171Z" fill="#231f20"/><path d="M222.86,125.71c1.79-9.13,17.11-10.86,16-.06-.39,3.71-1.71,7.45-4.41,10s-7,3.68-10.31,2" fill="#fff"/><path d="M227.58,139a8.34,8.34,0,0,1-3.69-.83.5.5,0,0,1-.23-.69.51.51,0,0,1,.69-.23c3,1.46,7,.65,9.72-1.95,3-2.83,4-6.84,4.26-9.71.39-3.75-1.36-6.3-4.69-6.8-4.09-.61-9.31,2.12-10.28,7a.51.51,0,0,1-.6.41.52.52,0,0,1-.41-.61c1.07-5.47,6.9-8.52,11.44-7.84,3,.46,6.11,2.78,5.57,7.93-.32,3-1.37,7.3-4.58,10.34A10.62,10.62,0,0,1,227.58,139Z" fill="#231f20"/><path d="M184.87,124.4c-1.15-9.24-16.32-12-15.94-1.18.13,3.73,1.19,7.56,3.71,10.3s6.69,4.16,10.15,2.75" fill="#fff"/><path d="M179.88,137.34a10.54,10.54,0,0,1-7.62-3.47c-3-3.25-3.74-7.58-3.84-10.63-.18-5.18,3-7.28,6.1-7.53,4.56-.36,10.18,3.09,10.87,8.62a.53.53,0,0,1-.45.58.53.53,0,0,1-.58-.45c-.62-5-5.64-8-9.76-7.72-3.36.27-5.28,2.69-5.15,6.46.1,2.88.8,7,3.57,10,2.56,2.79,6.5,3.87,9.57,2.61a.52.52,0,0,1,.39,1A8.18,8.18,0,0,1,179.88,137.34Z" fill="#231f20"/><path d="M184.62,170.33s7,3.58,19,4,14-2.85,14-2.85L217.4,165l-.66-15-.63-14-27.47-1-1.31,11.38-.41,3.69Z" fill="#fff"/><path d="M205.69,174.88c-.65,0-1.33,0-2.05,0-12-.41-19-3.9-19.26-4.05a.53.53,0,0,1-.28-.52l4-35.19a.54.54,0,0,1,.53-.46l27.47.95a.52.52,0,0,1,.5.49l1.58,35.4a.5.5,0,0,1-.07.29C218,171.89,216.06,174.88,205.69,174.88ZM185.17,170c1.5.68,8.15,3.43,18.5,3.79,10.18.36,13-2,13.49-2.5l-1.55-34.72-26.52-.92Z" fill="#231f20"/><path d="M186.92,150.2c2,3.41,5.3,6.14,8.75,8.22,5.8,3.48,14.52,7.47,21.73,6.62l-.66-15a67.2,67.2,0,0,1-15.84-.44c-4.63-.56-9.38-1.19-13.57-3.12Z" fill="#231f20"/><path d="M215.35,165.66c-7.41,0-15.53-4.17-19.93-6.81-4.17-2.51-7.17-5.33-8.93-8.4a.52.52,0,0,1-.06-.3l.4-3.69a.49.49,0,0,1,.25-.38.5.5,0,0,1,.46,0c4.24,1.95,9.11,2.55,13.42,3.08a66.22,66.22,0,0,0,15.73.44.46.46,0,0,1,.37.12.5.5,0,0,1,.18.35l.66,15a.5.5,0,0,1-.44.52A18.39,18.39,0,0,1,215.35,165.66Zm-27.92-15.57a23.86,23.86,0,0,0,8.5,7.91c4.62,2.77,13.41,7.26,20.95,6.59l-.61-14a67.93,67.93,0,0,1-15.44-.5c-4.16-.5-8.86-1.08-13.08-2.88Z" fill="#231f20"/><path d="M201,153.05l2.45.08a21.06,21.06,0,0,0,21.78-20.31s1.16-25.17,1.16-33.33S219.64,83.42,203,83.08s-21.18,10-21.18,18-1.16,30.19-1.16,30.19A21.07,21.07,0,0,0,201,153.05Z" fill="#fff"/><path d="M204.16,153.66h-.76l-2.45-.09h0a21.6,21.6,0,0,1-20.82-22.31c0-.23,1.16-22.24,1.16-30.17,0-3,.67-8.78,5.12-13.15,3.79-3.71,9.34-5.52,16.59-5.37,17.6.36,23.87,9,23.87,16.93s-1.14,33.1-1.16,33.35A21.6,21.6,0,0,1,204.16,153.66ZM201,152.53l2.46.09a20.57,20.57,0,0,0,21.24-19.82c0-.26,1.16-25.25,1.16-33.31,0-7.46-6-15.55-22.86-15.9-6.94-.13-12.26,1.57-15.84,5.08-4.19,4.1-4.82,9.54-4.82,12.41,0,8-1.15,30-1.16,30.22A20.56,20.56,0,0,0,201,152.53Z" fill="#231f20"/><path d="M199.15,138.48s-.72,7.9,3.52,8,4.23-8.72,4.23-8.72S201.73,137,199.15,138.48Z" fill="#fff"/><path d="M202.76,147h-.1a3.26,3.26,0,0,1-2.45-1.14c-2-2.28-1.59-7.24-1.57-7.45a.52.52,0,0,1,.26-.4c2.7-1.54,7.86-.78,8.08-.75a.52.52,0,0,1,.43.51c0,.25,0,6-2.37,8.29A3.19,3.19,0,0,1,202.76,147Zm-3.11-8.23c-.06,1-.15,4.73,1.34,6.4a2.25,2.25,0,0,0,1.7.79,2.15,2.15,0,0,0,1.63-.65c1.69-1.65,2-5.73,2.05-7.09C205.13,138.11,201.66,137.83,199.65,138.8Z" fill="#231f20"/><path d="M203.41,134.69a35,35,0,0,1-4.33-.28.52.52,0,0,1-.44-.58.51.51,0,0,1,.58-.44,33.35,33.35,0,0,0,6,.21.3.3,0,0,0,.26-.17c.92-1.48-1.4-8.5-3.07-12.57a.51.51,0,0,1,.28-.68.52.52,0,0,1,.67.28c.76,1.85,4.46,11.16,3,13.52a1.31,1.31,0,0,1-1.07.64C204.66,134.67,204,134.69,203.41,134.69Z" fill="#231f20"/><path d="M228.5,113.14s-22-7.39-49.89-2.14l.58,11.82a30.49,30.49,0,0,0,12.88,2.72c6.73-.26,11.43-6.17,11.43-6.17a11.12,11.12,0,0,0,10.06,7.14c7.72.25,13.46-4.91,13.46-4.91Z" fill="#fff"/><path d="M214.1,127h-.56a11.6,11.6,0,0,1-10.19-6.7c-1.45,1.57-5.64,5.51-11.26,5.73A30.62,30.62,0,0,1,179,123.28a.51.51,0,0,1-.29-.44L178.1,111a.51.51,0,0,1,.42-.53c27.71-5.22,49.92,2.07,50.14,2.15a.51.51,0,0,1,.34.58l-1.47,8.46a.52.52,0,0,1-.16.29A21.62,21.62,0,0,1,214.1,127Zm-10.6-8.18h.08a.5.5,0,0,1,.4.34,10.56,10.56,0,0,0,9.6,6.79c6.78.21,12.07-3.93,13-4.67l1.37-7.84a110,110,0,0,0-48.76-2.06l.54,11A30.2,30.2,0,0,0,192.05,125c6.4-.25,11-5.92,11-6A.53.53,0,0,1,203.5,118.86Z" fill="#231f20"/><ellipse cx="212.66" cy="118.84" rx="3.58" ry="1.45" transform="translate(86.51 327.24) rotate(-88.01)" fill="#231f20"/><ellipse cx="194.1" cy="118.19" rx="3.58" ry="1.45" transform="translate(69.25 308.08) rotate(-88.01)" fill="#231f20"/><path d="M228,116.3l-.15,0a110.37,110.37,0,0,0-25.74-3.86A118.41,118.41,0,0,0,178.84,114a.52.52,0,1,1-.21-1,119,119,0,0,1,23.54-1.58,111.15,111.15,0,0,1,26,3.9.51.51,0,0,1,.35.64A.52.52,0,0,1,228,116.3Z" fill="#231f20"/><path d="M202.07,261.37h0a.5.5,0,0,1-.5-.5q0-8.3.09-16.58a.51.51,0,0,1,.5-.49h0a.49.49,0,0,1,.49.5q-.07,8.28-.09,16.57A.5.5,0,0,1,202.07,261.37Z" fill="#231f20"/><path d="M202.16,134.17a19.9,19.9,0,0,0-10.09,6.72s4.31,2.5,10.6-2.41c0,0,7.54,3.72,12.36,1.85C215,140.33,209.44,133.08,202.16,134.17Z" fill="#231f20"/><path d="M195.07,142a6.72,6.72,0,0,1-3.25-.72.5.5,0,0,1-.13-.75c4.8-5.69,10.15-6.84,10.37-6.89h0c7.48-1.12,13.1,6,13.33,6.34a.5.5,0,0,1,.09.44.49.49,0,0,1-.3.33c-4.49,1.75-11-1.06-12.47-1.73A12.75,12.75,0,0,1,195.07,142Zm-2.18-1.34c1.31.46,4.78,1.05,9.48-2.61a.49.49,0,0,1,.52-.06c.07,0,6.71,3.27,11.28,2.05-1.46-1.62-6.19-6.26-11.92-5.42A19.54,19.54,0,0,0,192.89,140.7Z" fill="#231f20"/><path d="M163.1,166l-44.25,20.53L94,148.34s-37.16,11.6-36.6,13.23,33.79,78.79,56.31,71.24S156,219.29,156,219.29Z" fill="#68e1fd"/><path d="M66,141a.51.51,0,0,1-.5-.43c-1-6.2,6.1-11.21,6.41-11.42a.53.53,0,0,1,.72.13.52.52,0,0,1-.14.72c-.06.05-6.9,4.84-6,10.4a.52.52,0,0,1-.42.6Z" fill="#231f20"/><path d="M151.29,259.63h0a.5.5,0,0,1-.46-.53c.08-1.37-3.37-45.23-5.21-68.23a.5.5,0,0,1,1-.08c.21,2.72,5.32,66.67,5.2,68.38A.5.5,0,0,1,151.29,259.63Z" fill="#231f20"/><path d="M249.12,262.13h0a.49.49,0,0,1-.45-.54l5.81-70.8a.5.5,0,0,1,1,.08l-5.81,70.81A.49.49,0,0,1,249.12,262.13Z" fill="#231f20"/><path d="M84.55,119.16c-14.46,0-26.23-19.1-26.23-42.57S70.09,34,84.55,34s26.23,19.09,26.23,42.56S99,119.16,84.55,119.16Zm0-84.13C70.64,35,59.32,53.67,59.32,76.59s11.32,41.57,25.23,41.57,25.23-18.65,25.23-41.57S98.46,35,84.55,35Z" fill="#d1d3d4"/><path d="M56.69,105.57c-8,0-14.26-1.85-17.45-5.69a10.29,10.29,0,0,1-2-9.07c2-10,15-22.36,33-31.57,25-12.77,51.69-15.43,59.58-5.93a10.29,10.29,0,0,1,2,9.07c-2,10-15,22.36-33,31.57h0C84,101.55,68.46,105.57,56.69,105.57Zm55.77-57c-11.56,0-26.93,4-41.73,11.58C53,69.2,40.22,81.33,38.23,91A9.31,9.31,0,0,0,40,99.24c7.61,9.16,33.79,6.38,58.36-6.18l.23.44-.23-.44c17.76-9.08,30.52-21.2,32.5-30.88A9.31,9.31,0,0,0,129.09,54C126.07,50.3,120.1,48.55,112.46,48.55Z" fill="#d1d3d4"/><path d="M112.41,105.57c-11.77,0-27.26-4-42.13-11.62-18-9.21-31-21.6-33-31.57a10.29,10.29,0,0,1,2-9.07c7.89-9.5,34.62-6.84,59.59,5.93,18,9.21,31,21.6,33,31.57a10.29,10.29,0,0,1-2,9.07C126.67,103.72,120.4,105.57,112.41,105.57Zm-55.77-57C49,48.55,43,50.3,40,54a9.31,9.31,0,0,0-1.78,8.23c2,9.68,14.74,21.8,32.5,30.88h0c24.58,12.56,50.76,15.33,58.36,6.18A9.31,9.31,0,0,0,130.87,91c-2-9.68-14.74-21.81-32.5-30.88C83.58,52.56,68.2,48.55,56.64,48.55Z" fill="#d1d3d4"/><circle cx="84.55" cy="76.59" r="13.21" fill="#d1d3d4"/><circle cx="73.94" cy="37.87" r="5.01" fill="#d1d3d4"/><circle cx="42.03" cy="98.61" r="5.01" fill="#d1d3d4"/><circle cx="129.33" cy="99.81" r="5.01" fill="#d1d3d4"/><path d="M313.19,117.48c-14.46,0-26.23-19.09-26.23-42.56s11.77-42.57,26.23-42.57,26.23,19.1,26.23,42.57S327.66,117.48,313.19,117.48Zm0-84.13C299.28,33.35,288,52,288,74.92s11.32,41.56,25.23,41.56,25.23-18.64,25.23-41.56S327.11,33.35,313.19,33.35Z" fill="#d1d3d4"/><path d="M341.05,103.9c-11.76,0-27.26-4-42.13-11.62-18-9.21-31-21.61-33-31.58a10.29,10.29,0,0,1,2-9.07c7.89-9.49,34.62-6.83,59.59,5.93,18,9.21,31,21.61,33,31.57a10.34,10.34,0,0,1-2,9.08C355.31,102,349,103.9,341.05,103.9Zm-55.77-57c-7.63,0-13.6,1.75-16.63,5.39a9.35,9.35,0,0,0-1.78,8.23c2,9.69,14.75,21.81,32.5,30.88C324,104,350.13,106.72,357.73,97.57a9.36,9.36,0,0,0,1.79-8.23c-2-9.69-14.75-21.81-32.51-30.89h0C312.22,50.89,296.84,46.88,285.28,46.88Z" fill="#d1d3d4"/><path d="M285.33,103.9c-8,0-14.26-1.86-17.45-5.69a10.31,10.31,0,0,1-2-9.08c2.05-10,15-22.36,33-31.57h0c25-12.76,51.7-15.42,59.58-5.93a10.33,10.33,0,0,1,2,9.07c-2.05,10-15,22.37-33,31.58C312.6,99.88,297.1,103.9,285.33,103.9ZM299.14,58l.23.44c-17.75,9.08-30.51,21.2-32.5,30.89a9.36,9.36,0,0,0,1.78,8.23c7.61,9.15,33.79,6.38,58.36-6.19,17.76-9.07,30.52-21.19,32.51-30.88a9.35,9.35,0,0,0-1.79-8.23c-7.6-9.15-33.78-6.38-58.36,6.18Z" fill="#d1d3d4"/><circle cx="313.19" cy="74.92" r="13.21" fill="#d1d3d4"/><circle cx="302.58" cy="113.65" r="5.01" fill="#d1d3d4"/><circle cx="270.67" cy="52.9" r="5.01" fill="#d1d3d4"/><circle cx="357.97" cy="51.7" r="5.01" fill="#d1d3d4"/><path d="M212,59c-1.6,2.79-3.16,5.6-4.83,8.35a8.42,8.42,0,0,1-1.72,1.58c-.49-.69-1.41-1.4-1.4-2.08.1-3.65.4-7.3.73-10.94,0-.4.8-1.12,1.06-1a2.68,2.68,0,0,1,1.7,1.13,5.56,5.56,0,0,1,0,2.57,27.85,27.85,0,0,0-.51,4c.62-1.09,1.21-2.19,1.87-3.26a13.11,13.11,0,0,1,1.43-2c.95-1.06,2-2.12,3.58-1.58s1.68,2,1.76,3.32,0,2.71,0,4.07l.63.1c.65-1.27,1.23-2.58,2-3.8a13.46,13.46,0,0,1,2.24-3.07,2.38,2.38,0,0,1,4.17,1.24c.42,1.62.46,3.34.82,5a7.55,7.55,0,0,0,1.1,2.84c.54.76,1.28,1.31.3,2.15s-2.08,1-3,.08a5.32,5.32,0,0,1-1.14-2.46c-.34-1.71-.44-3.46-.67-5.18a8.76,8.76,0,0,0-.47-1.38c-.67,1.08-1.16,1.81-1.58,2.59-.88,1.63-1.68,3.31-2.62,4.91-.57,1-1.46,2-2.65,1.39a3.7,3.7,0,0,1-1.54-2.4,56,56,0,0,1-.5-5.81Z"/><path d="M162.83,58.77l5-.63a8.34,8.34,0,0,1,2.24-.26,7.27,7.27,0,0,1,2,1c-.54.56-1,1.46-1.64,1.6-2,.45-4,.6-6,.88-1.56.22-3.14,3.43-2.26,4.73.2.3.92.4,1.37.35,2-.22,3.92-.55,5.88-.8a5.11,5.11,0,0,1,2.05-.09,2,2,0,0,1,1.17,1.25c.07.29-.55,1-1,1.14a8.41,8.41,0,0,1-2.21.43c-2.71.32-5.42.68-8.15.9-2.22.18-2.88-.8-2.48-3,.71-3.94,1.29-7.9,1.9-11.85a2.53,2.53,0,0,0-.09-1c-.54-1.94-.23-2.23,1.76-2.36,2.9-.19,5.78-.6,8.67-.85,1.16-.1,2.82-.55,2.9,1.23.06,1.56-1.53,1.41-2.67,1.5-1.92.16-3.83.32-5.74.46a1.75,1.75,0,0,0-1.87,1.81A33,33,0,0,1,162.83,58.77Z"/><path d="M236.21,57.07c-2.32,1.19-4.85,5.81-4.28,7.9a2.25,2.25,0,0,0,1.79,1.33A28,28,0,0,0,237.79,65a13.38,13.38,0,0,1,1.91-.34,5.46,5.46,0,0,1-.81,1.88A8.05,8.05,0,0,1,232.6,69a3.66,3.66,0,0,1-3.68-3.49c-.4-3.42,2.69-9.18,5.77-10.73,1.17-.59,2.37-.79,3.38.27a3.75,3.75,0,0,1,1,4,1.6,1.6,0,0,1-1.16.82c-.32,0-.83-.4-1-.76A13.44,13.44,0,0,1,236.21,57.07Z"/><path d="M193.91,58.35c-3.5,0-6.57,0-9.64-.05-.58,0-1.15-.64-1.72-1a6.75,6.75,0,0,1,1.38-1.52,4.38,4.38,0,0,1,1.87-.29c2-.08,4.07-.18,6.11-.13a5.43,5.43,0,0,1,2.43.67,1.66,1.66,0,0,1,.46,1.5C194.69,58,194,58.24,193.91,58.35Z"/><path d="M189.22,61.31a34.32,34.32,0,0,1,4.37.4c.57.11,1,1,1.47,1.55-.64.31-1.27.87-1.93.89-2.6.08-5.21,0-7.82,0-.46,0-1,.1-1.36-.13a6.8,6.8,0,0,1-1.15-1.42c.43-.32.82-.86,1.28-.92C185.56,61.46,187.07,61.44,189.22,61.31Z"/><path d="M247,58.85a13.07,13.07,0,0,0-1.66,0l.06-.06c.38-.41.74-.85,1.08-1.3a2.74,2.74,0,0,0,.6-2.76c-.82-2.12-3.36-2-5-1-1.14.73-.09,2.55,1.06,1.82.46-.3,1.1-.68,1.64-.38.71.4,0,1.09-.35,1.51-.7.86-1.66,1.53-2.28,2.43a1,1,0,0,0,0,1.06c.5.68.93.71,1.74.7A26.59,26.59,0,0,1,247,61C248.38,61.08,248.37,59,247,58.85Z"/></g></svg>