<svg id="Layer_1" data-name="Layer 1" xmlns="http://www.w3.org/2000/svg" xmlns:xlink="http://www.w3.org/1999/xlink" viewBox="0 0 400 300"><defs><linearGradient id="linear-gradient" x1="264.44" y1="222.81" x2="286.61" y2="157.91" gradientUnits="userSpaceOnUse"><stop offset="0" stop-color="gray" stop-opacity="0"/><stop offset="1" stop-color="#1b1464"/></linearGradient><linearGradient id="linear-gradient-2" x1="87.19" y1="220.5" x2="119.37" y2="182.08" xlink:href="#linear-gradient"/><linearGradient id="linear-gradient-3" x1="159.85" y1="251.99" x2="184.2" y2="197.37" xlink:href="#linear-gradient"/><linearGradient id="linear-gradient-4" x1="157.14" y1="187.98" x2="179.98" y2="136.75" xlink:href="#linear-gradient"/></defs><title>#31-40</title><ellipse cx="205.09" cy="198.13" rx="145.14" ry="62.26" fill="#dbe1ef"/><path d="M280.7,237.37l59.1-41.32-105.61-4.63-30.87,16.43C211.94,212.75,240.86,233.17,280.7,237.37Z" fill="url(#linear-gradient)"/><path d="M87.09,230.09l36.74-25.9L101,196.62,70.74,212.71A57.05,57.05,0,0,0,87.09,230.09Z" fill="url(#linear-gradient-2)"/><path d="M122.28,139.93s2.91,4,2.33,4.71-2.14-1.47-2.14-1.47,1.44,4,1,5.07-1.91,2.66-3.06,2.22-.88-9.11-.88-9.11Z" fill="#ffa852"/><path d="M116.29,106.8l6,33.13s-2.76,1.94-4.8,1.29" fill="#1b8c7c"/><ellipse cx="285.3" cy="60.1" rx="18.24" ry="7.7" fill="#68e1fd"/><path d="M175.46,257l39.76-24.82L148.49,226l-30.87,16.43C126.23,247.29,135.61,252.77,175.46,257Z" fill="url(#linear-gradient-3)"/><path d="M103.65,197.14s.64,5.59,3.55,6.68,4.39,3,2.65,4.35S99.7,206,99.7,206l-3-6.62-.23,4.89-3.17-1.82.41-17.68,8.68,2.35Z" fill="#4e3f92"/><path d="M117.68,193.24s.63,5.55,3.52,6.63,4.36,2.93,2.63,4.32S113.76,202,113.76,202l-3-6.57-.23,4.85-3.15-1.81.57-16.66,8.45,1.44Z" fill="#4e3f92"/><path d="M90.66,174.72l.74,19.33s9.39,1.35,12.78-.78V171.73" fill="#ffa852"/><path d="M105.48,170.56l.74,19.19s9.32,1.34,12.68-.77V167.59" fill="#ffa852"/><path d="M266.57,74.18v44.21s-35.87,55.51-37.9,61.19-1.37,12.77,10.16,17.26c16.12,6.26,80.65,7.51,97.43,1,15.57-6.06,5.41-19.18,3.4-24.23s-36.09-56.49-36.09-56.49v-56H267.07Z" fill="#68e1fd"/><ellipse cx="285.3" cy="60.1" rx="18.24" ry="7.7" fill="#fff" opacity="0.46"/><path d="M140.85,206.36s-1.5,33.22,40.18,34.58c48.09,1.57,46.74-34.58,46.74-34.58" fill="#fd8d8f"/><ellipse cx="184.31" cy="206.36" rx="43.46" ry="12.92" fill="#e86b72"/><path d="M184.31,220.12c-28.23,0-43.46-7.09-43.46-13.76s15.23-13.76,43.46-13.76,43.46,7.09,43.46,13.76S212.54,220.12,184.31,220.12Zm0-25c-24.05,0-40.82,5.95-40.82,11.29s16.76,11.29,40.82,11.29,40.82-5.95,40.82-11.29S208.37,195.07,184.31,195.07Z" fill="#ffabaf"/><path d="M115,102.35a8.74,8.74,0,0,0-3.63-3.78,23.42,23.42,0,0,0-5.62-2.22c-4.51.68-9.57,2.11-11.07,4-2.69,3.37-.36,24.13,0,25,.73,1.77,2.1,51.13,4.83,51.71,9.67-1.18,16.47-1.35,21.58-6.55,0-13.2-1-27.38-2.29-40.49-.51-5.12-1.07-10.24-1.71-15.34C116.55,110.67,116.78,105.93,115,102.35Z" fill="#3ab4a7"/><path d="M103.37,131.95v44.52s-9.24,1.68-12.39.38-2.78-3.43-2.78-3.43L90,114.85" fill="#3ab4a7"/><path d="M112.19,132.56l.41,42.05s6.39-5.92,8.08-11.14l-2.71-45-1.53-8.27" fill="#3ab4a7"/><path d="M101.76,96.83A14.68,14.68,0,0,0,90,108.91c-1.37,7.75-3.47,21.8,8.82,19.81a49.71,49.71,0,0,0,21.44-9.6l-4.68-9-15,5.26" fill="#3ab4a7"/><polygon points="122.35 101.56 135.08 94.34 133 115.53 120.24 122.59 122.35 101.56" fill="#88ce00"/><path d="M116.66,112.35l3.71-3.21s1.2-3.3,1.68-3.22,0,4.72,0,4.72,4.33-2.1,5.77-1.87-.32,5.65-1.12,6.08-7.37,2.6-7.37,2.6Z" fill="#ffa852"/><path d="M97,177.34c0-.09,2.43-9.79,2.43-9.79l3.89,9.79" fill="#ffa852"/><path d="M323,173.27c-1.3-3.28-21.78-34.29-25-39.21-7.47,4.83-19,5.14-27.11,1.07-3.62,5.61-24.92,38.7-26.22,42.37-1.43,4-1,9,7.18,12.18,11.38,4.42,56.94,5.3,68.79.69C331.59,186.1,324.42,176.84,323,173.27Z" fill="#4e3f92"/><ellipse cx="194.04" cy="88.6" rx="6.14" ry="5.74" fill="#68e1fd"/><ellipse cx="173.22" cy="66.34" rx="11.38" ry="10.63" fill="#68e1fd"/><path d="M179.64,60.68a7.11,7.11,0,0,0-4.73-2.38,1.5,1.5,0,0,0,0,3,4.3,4.3,0,0,1,2.61,1.5,3.63,3.63,0,0,1,1.33,2.51c0,1.93,3,1.93,3,0A6.6,6.6,0,0,0,179.64,60.68Z" fill="#fff"/><path d="M179.67,67.92h-.11a1.5,1.5,0,0,0,0,3h.11a1.5,1.5,0,0,0,0-3Z" fill="#fff"/><path d="M198.19,87.34a3.84,3.84,0,0,0-3.34-2.76,1,1,0,0,0-1,1,1,1,0,0,0,1,1,1.78,1.78,0,0,1,1.41,1.29A1,1,0,0,0,198.19,87.34Z" fill="#fff"/><path d="M196.42,89.62l-.09.09a1,1,0,0,0,1.41,1.41l.09-.09A1,1,0,0,0,196.42,89.62Z" fill="#fff"/><ellipse cx="284.67" cy="135.33" rx="13.89" ry="5.06" fill="#6c62b2"/><path d="M338.19,179.41c-1.66-3.66-3.55-7.21-5.55-10.7-1.28-2.23-4.74-.22-3.45,2s2.68,4.8,3.91,7.26,3.47,5.8,2.38,8.63c-.93,2.4,2.94,3.44,3.86,1.06C340.45,184.78,339.41,182.11,338.19,179.41Z" fill="#fff"/><path d="M333.42,189.42h-.16a2,2,0,0,0,0,4h.16a2,2,0,0,0,0-4Z" fill="#fff"/><path d="M294.52,75.15v30.77c0,2.57,4,2.58,4,0V75.15C298.52,72.58,294.52,72.57,294.52,75.15Z" fill="#fff"/><path d="M89.73,123.83s.39,6.49,9.08,4.9,20.46-8.85,20.46-8.85a69.57,69.57,0,0,1-8.45,6.46c-6.59,4.34-13.38,7.19-21.32,5.16Z" fill="#1b8c7c"/><path d="M116.77,111.92l-.33-1.42a.5.5,0,0,0-.61-.35q-7.88,2.41-15.72,5c0-1.35,0-2.69.06-4,0-.64-1-.64-1,0a46.3,46.3,0,0,0,0,4.72.51.51,0,0,0,.63.48q7.9-2.57,15.84-5l.21.92C115.95,112.81,116.91,112.54,116.77,111.92Z" fill="#1b8c7c"/><polygon points="110.81 126.33 110.81 175.51 112.19 175.2 110.81 126.33" fill="#1b8c7c"/><path d="M106.56,94.83s-.08,3.8-1.58,4.38-5.21-1.37-5.25-2.45,2.54-3.38,2.54-3.38" fill="#f49138"/><path d="M98.82,98l.64-3.06,5.9,3.91v3.43S100.75,101.33,98.82,98Z" fill="#1b8c7c"/><path d="M105.36,98.81l1.84,2.41s1-2.7.3-4.24S106,95.22,106,95.22,106.28,97.9,105.36,98.81Z" fill="#1b8c7c"/><path d="M111.09,86.08S111.66,96.61,106,97s-5.12-4.1-5.12-4.1-1.45-9.57,3.67-10.3S111.09,86.08,111.09,86.08Z" fill="#ffa852"/><path d="M107.2,89.44l-2.77.27-.87-2.19.58,8.21a16.68,16.68,0,0,1,0,2.49s-5.77.27-9.11-2.73-.63-15.52,5.7-16.26,12.15,2,12,9l-1.37.46Z" fill="#4e3f92"/><path d="M161.84,190.51l43.25-22.91-49.51-6.16-33.48,18C130.71,184.32,122,186.3,161.84,190.51Z" fill="url(#linear-gradient-4)"/><path d="M208.17,126.83a33.7,33.7,0,0,1,8.69-12.75s-6.25-7.33-10.12-9.32" fill="#e6e6e6"/><path d="M150.81,107.66s1.35-8.65,29-8.14,31,8.14,31,8.14" fill="#e6e6e6"/><path d="M202.38,153c-1.83,2.9-5.67,3.47-8.93,4a95.22,95.22,0,0,1-12.62,1.29,97.78,97.78,0,0,1-23.93-2.14c-.63-.14-.9.77-.27.91a98.74,98.74,0,0,0,27,2,86,86,0,0,0,12.57-1.65c2.8-.61,5.48-1.58,7-4C203.58,153,202.71,152.48,202.38,153Z" fill="#e6e6e6"/><polyline points="151.24 107.66 152.54 162.69 208.36 162.69 208.36 106.18" fill="#e6e6e6"/><path d="M179.8,99.05c-16.54,0-29.5,3.78-29.5,8.61s13,8.61,29.5,8.61a78.11,78.11,0,0,0,20.89-2.49,20.39,20.39,0,0,1-2.24.17,3.38,3.38,0,0,1-1.32-.25,84.55,84.55,0,0,1-17.33,1.62c-17,0-28.49-4-28.49-7.66S162.76,100,179.8,100c12.35,0,21.75,2.08,26,4.63a3.51,3.51,0,0,1,.84.08,4.71,4.71,0,0,1,.88.35,3.33,3.33,0,0,1,.83.67,3,3,0,0,1,.57.52C206.67,102.12,194.69,99.05,179.8,99.05Z" fill="#ccc"/><ellipse cx="180.45" cy="163.54" rx="27.91" ry="9.15" fill="#e6e6e6"/><path d="M181.81,116.3l-2,0,0-.94c4,.11,5.1,0,11.24-.77,2-.24,4.61-.56,8-.94,9.45-1.08,14.35-.68,16.53-.31-7.5-9.13-13.68-10.43-13.74-10.45l.2-.92c.28.05,7.06,1.45,15.2,11.87l1.06,1.35-1.66-.64s-4.18-1.48-17.46,0c-3.41.39-6,.7-8,.94A71.43,71.43,0,0,1,181.81,116.3Z" fill="#ccc"/><path d="M206,161.43v-22.9c-18-15.32-51.19-13.35-51.19-13.35l.72,36.25s5.07,7.83,24.18,7.11S206,161.43,206,161.43Z" fill="#3ab4a7"/><path d="M154.86,125.18s6,15.29,19.67,13.7,22.58-4.22,31.52-.35C206,138.53,193,124,154.86,125.18Z" fill="#70cac0"/><rect x="154.86" y="117.46" width="5.48" height="29.59" rx="2.74" ry="2.74" fill="#fff"/><rect x="154.86" y="149.18" width="5.48" height="10.89" rx="2.74" ry="2.74" fill="#fff"/><path d="M188.28,219.17c1.38,0,2.75-.06,4.12-.17a7.24,7.24,0,0,0-.4-1.18l-16.74-37a9,9,0,0,0-11.43-4.33,8,8,0,0,0-4.64,10.68l13.86,30.64Q180.65,218.8,188.28,219.17Z" fill="#ffa852"/><path d="M162.4,177.34A7.86,7.86,0,0,0,159,187.4L172.86,218c2.69.35,5.39.63,8.1.86C174.49,205.15,168.26,191.32,162.4,177.34Z" fill="#ffc088"/></svg>