<svg xmlns="http://www.w3.org/2000/svg" xmlns:xlink="http://www.w3.org/1999/xlink" viewBox="0 0 400 300"><defs><linearGradient id="linear-gradient" x1="343.29" y1="154.63" x2="313.92" y2="190.29" gradientUnits="userSpaceOnUse"><stop offset="0" stop-color="#00a99d"/><stop offset="1" stop-color="#fff"/></linearGradient><linearGradient id="linear-gradient-2" x1="279.16" y1="198.13" x2="250.15" y2="233.36" xlink:href="#linear-gradient"/><linearGradient id="linear-gradient-3" x1="146.18" y1="212.26" x2="114.05" y2="238.47" xlink:href="#linear-gradient"/></defs><title>121-130</title><g style="isolation:isolate"><g id="Layer_2" data-name="Layer 2"><polygon points="194.37 285.41 391.4 172.64 230.56 79.78 35.03 193.76 194.37 285.41" fill="#cbe8a6"/><polyline points="350.12 177.19 313.17 198.39 291.71 186.41 323.8 167.21 330.47 167.53" fill="url(#linear-gradient)" style="mix-blend-mode:multiply"/><polyline points="282.09 217.28 244.87 239.85 232.02 232.68 254.29 219.35 270.79 213.8" fill="url(#linear-gradient-2)" style="mix-blend-mode:multiply"/><polyline points="158.66 252.29 55.81 193.19 253.06 78.34 337.23 149.19" fill="url(#linear-gradient-3)" style="mix-blend-mode:multiply"/><polygon points="61.02 153.75 158.57 251.56 337.15 148.47 238.87 51.08 61.02 153.75" fill="#68e1fd"/><polygon points="61.02 153.75 158.57 251.56 337.15 148.47 238.87 51.08 61.02 153.75" fill="#146666" opacity="0.72"/><polygon points="69.06 154.69 159.33 246.09 332.15 147.76 237.83 56.15 69.06 154.69" fill="none" stroke="#f2f2f2" stroke-miterlimit="10" stroke-width="0.75"/><path d="M203,108.08c.06.24.32.74.25.94l-.23.56-3.89-5,.57-.22.42,1.17c.07.2.64.42.83.54.35.2.9,1.72,1.22,1.74S202.84,107.65,203,108.08Z" fill="#fff"/><path d="M245.7,78.51l-.39.47c-.09-.07-.59-.47-.57-.52s.22-.53.4-.63h0l.79-.43c.2-.11.45,0,.7,0,0,.46-.32.63-.61.92l0,0a.37.37,0,0,1-.12,0l-.13,0Z" fill="#fff"/><path d="M244.78,123.71a5.16,5.16,0,0,1,.39,1.16c-.37-.16-.76-.25-1-.64a1.22,1.22,0,0,1-.08-1.09.35.35,0,0,1,.11-.14C244.44,122.87,244.65,123.47,244.78,123.71Z" fill="#fff"/><path d="M223.64,161.38c.8.31,1.33,1.24,1.91,1.91a1.79,1.79,0,0,1,.25,1.76c-.14.24-.49.62-.49.92s0,.78,0,1.18-.15.6.2.82a4.33,4.33,0,0,1,1,.67c.18.28.68.85.71,1.13s-.39.72-.5.93,0,.44.26.85c.15.22.62.76.64,1a19.46,19.46,0,0,1,.17,2.31,10.29,10.29,0,0,1-.22,1.11c0,.21,0,.73-.18.87-.52.52-1,1.06-1.56,1.58l-.72.73c-.16.1-.7-.1-.88-.14-.6-.11-.58-.12-.93-.67-.13-.22-.63-.44-.84-.58l-1.34-.89a3.05,3.05,0,0,0-1-.27c-.19,0-.62-.58-.76-.73l-1.22-1.21a8.37,8.37,0,0,0-1.86-1.22l-1.29-.73c-.19-.11-.31-.46-.41-.63a7.79,7.79,0,0,1-1.18-2.42c-.16-.85-.75-1.22-1.4-1.79L209.92,166a2.35,2.35,0,0,0-.73-.3l12.15-7.47c.07.66.19,1.49.41,1.58a1.68,1.68,0,0,1,1,.84A1.36,1.36,0,0,0,223.64,161.38Z" fill="#fff"/><path d="M270.18,129.76a1.05,1.05,0,0,1,.45.1c.16.1.15.18.07.23a.54.54,0,0,1-.38,0c-.08,0-.15-.17-.27-.21a.66.66,0,0,1-.37-.3C269.9,129.58,270,129.77,270.18,129.76Z" fill="#fff"/><path d="M268.29,129.42l.16-.05c.29.14.26.17.35.47l-.26-.16a.49.49,0,0,0-.31-.25l0,0Z" fill="#fff"/><path d="M268.15,131.3a1.11,1.11,0,0,1-1,.08.5.5,0,0,1,.15-.13l.16-.08.12-.07.06,0c.13-.09.08-.35.12-.37h0c.05.17.11.21.18.17s.31-.61.33-.63-.38-.4-.24-.48a.19.19,0,0,1,.11,0c.27,0,.61.19.36.45.42.11,0,.31.05.39a.72.72,0,0,1-.25.65Z" fill="#fff"/><path d="M268.23,129.44c-.43-.14-1.09.07-1.19-.17.33,0,.68,0,1,0l.22.11Z" fill="#fff"/><path d="M114.45,174.2c.18-.11.41-.13.46,0l.13,0c0,.1,0,.17,0,.2l-.1,0a.25.25,0,0,1,0,.4c-.13.1-.06.36-.16.43l0,0a.39.39,0,0,1-.48-.15c-.12-.15-.18-.34-.05-.42a.3.3,0,0,1,.16,0C114.17,174.49,114.29,174.3,114.45,174.2Z" fill="#fff"/><path d="M118.07,146.29c-.12.07-.2.23-.29.32h-.15c0-.36.4-.68.59-.92a1.19,1.19,0,0,1,.26-.2c.22-.14.52-.25.68-.11s.1.26-.05.35a1.9,1.9,0,0,1-.35.15l-.28.1c-.11.09,0,.2-.13.25a.29.29,0,0,1-.15,0A.25.25,0,0,0,118.07,146.29Z" fill="#fff"/><path d="M124,149.83c-.15-.42.28-.53.51-.75.25,0,.38-.05.55.15a.68.68,0,0,1,.1.59.22.22,0,0,1-.07.08c-.12.07-.29,0-.49,0A1.15,1.15,0,0,0,124,149.83Z" fill="#fff"/><path d="M123.6,146.45a.73.73,0,0,1-.53.11c0-.17.23-.36.43-.48l.23-.12C123.91,146.14,123.79,146.33,123.6,146.45Z" fill="#fff"/><path d="M254.08,141.25a.4.4,0,0,1,.12-.11c.15-.09.38-.13.39.13s0,.17-.07.2S254.22,141.42,254.08,141.25Z" fill="#fff"/><path d="M262.35,138.81a.27.27,0,0,1-.12.14c-.11.07-.26.1-.38.17-.14-.19-.11-.27,0-.31l.09,0,.1-.05a.26.26,0,0,0,.12-.14l.06,0C262.32,138.43,262.41,138.65,262.35,138.81Z" fill="#fff"/><path d="M180.2,119.28c-.1.06-.21.08-.39-.07l.13-.1a.92.92,0,0,1,.23-.1l.1,0c.08,0,0-.12.09-.24.1.14,0,.25,0,.41Z" fill="#fff"/><path d="M180.58,118.7a1.33,1.33,0,0,1-.52,1.11c.09-.1.11-.22-.06-.3.12-.1.37-.21.44-.35S180.4,118.82,180.58,118.7Z" fill="#fff"/><path d="M192.27,114c-.5-.12-.56-.36-.35-.68a1.2,1.2,0,0,1,.75,0c0,.12-.13.59-.3.7A.13.13,0,0,1,192.27,114Z" fill="#fff"/><path d="M186,101.37c0,.15-.07.31-.1.45l-.63.27c.09-.35.11-.5.26-.59A1.47,1.47,0,0,1,186,101.37Z" fill="#fff"/><path d="M183.11,102.6l-.59.66-.66.19a3.48,3.48,0,0,1,.83-.89,1.7,1.7,0,0,1,.42-.18l.16-.08a2.22,2.22,0,0,0,.47-.5.48.48,0,0,1,.13-.1,1.09,1.09,0,0,1,.66-.06l-.95,1,.36.28a2.92,2.92,0,0,1-1.11.44Z" fill="#fff"/><path d="M187.56,100.11H188l-.34.3.22.09a4.58,4.58,0,0,1-.66.61.41.41,0,0,1-.47,0C186.42,100.88,187.47,100.18,187.56,100.11Z" fill="#fff"/><g style="isolation:isolate"><path d="M241.44,103.09c0-.37-.5-.22-.64-.47a3.34,3.34,0,0,0-.5-.83c-.18-.14-.23-.14-.18-.32a.14.14,0,0,1,.05-.09l.06,0h0a0,0,0,0,0,0,0c0-.25-.25-.44-.51-.51a.3.3,0,0,1,.11-.19c.17-.1.45.38.67.51.54.3.39.71.79,1.09.12.12.36.14.49.25l.6.5.06.05-.76.47Z" fill="#fff"/><path d="M242.88,105.2a.55.55,0,0,0-.26-.47c-.35-.32-.48-.26-.59-.7a1.58,1.58,0,0,0-.28-.54l.76-.47a6.13,6.13,0,0,0,1.18.82c-.23.13-.53-.27-.73-.14l0,0c-.32.3-.19.39,0,.89s.28.35.64.53.8.33.77.69c-.13-.19-.42-.39-.61-.27l0,0c-.18.17,0,.47.15.67-.39-.25-.39-.37-.66-.72C243.1,105.45,242.89,105.33,242.88,105.2Z" fill="#fff"/><path d="M244.28,108.11l.47-.12a.66.66,0,0,0-.23-.38c-.12-.14,0-.4-.15-.5s-.59-.58-.49-.64.08,0,.17,0a2.9,2.9,0,0,0,1.17.33,1.54,1.54,0,0,0,.55-.06c.09-.05.12-.17.14-.42.22.16.2.76.62.51l0,0a.62.62,0,0,1-.33.58l-.08,0a.6.6,0,0,0-.16.38l.18.45,0,0a1.63,1.63,0,0,1-.8,0,.11.11,0,0,0-.08,0,.71.71,0,0,0-.18.27l0,0a.34.34,0,0,1-.14,0,.57.57,0,0,0-.18.05l0,0c.18.31.37,0,.57.14s.08.11,0,.15l-.09,0h0s0,.09,0,.16,0,.13,0,.14h0l-.64-.47c-.09-.2-.07-.21,0-.39S244.33,108.21,244.28,108.11Z" fill="#fff"/><path d="M245.48,115.15a1,1,0,0,1,.24-.23c.13-.08.26-.08.42.13l0,.42h-.28c-.11.17.08.53-.09.63a.26.26,0,0,1-.15,0c-.45-.35-.26-.34-.39-.79h0A1.07,1.07,0,0,0,245.48,115.15Z" fill="#fff"/><path d="M244.22,116.68c.09-.27.44-.71,0-1h0a.92.92,0,0,0,.37-.95c0-.38.54-.62.79-.83a.14.14,0,0,1,.14,0s.07,0,.12,0a.3.3,0,0,0,.09-.11c.1-.18-.13-.21-.14-.4s.06-.47-.05-.61-.1-.3.06-.52c0,.07,0,.47.19.38a1.25,1.25,0,0,0,.31-.45,1.36,1.36,0,0,0,0-1l-.31-.77c0-.1-.28-.06-.37-.24s-.22-.69-.08-.77.14,0,.28.11c-.19-.17-.24-.36-.11-.44a.28.28,0,0,1,.16,0c.08.17.13.33.29.43s.47.2.57.34.36.37.29.58.1.3.24.48a.29.29,0,0,0-.14,0c-.14.08.08.31.2.46s.15.36.29.64.47.54.46.57c-.1.21,0,.42-.14.62l-.17-.35a2.9,2.9,0,0,0,0,.68l-.35-.2a.62.62,0,0,1-.24.59.47.47,0,0,1-.46,0c-.08.23.08.35.33.4l-.06,0c-.21.13-.09.49-.07.74-.4-.08-.74-.15-.65-.62-.13.06-.32.11-.45.2a.29.29,0,0,0-.17.25l-.22.34c0,.09-.06.17-.12.21s-.12,0-.24,0c.11.23,0,.31,0,.37l-.06,0,0,0a.29.29,0,0,0-.16.22.22.22,0,0,0,.25,0l0,0s.08,0,.16,0,.39.16.42.27a2.61,2.61,0,0,1,.2,1.22.23.23,0,0,1-.09.14c-.19.12-.54-.41-.57-.64s-.14-.52-.39-.41c-.1.06,0,.13,0,.2s.09.13,0,.2l0,0Z" fill="#fff"/><path d="M269.36,132.93c0,.25.48.28.68.34l0,0c-.15.09-.53.06-.71.13s-.52.28-.86.19l-1.33-.35c-.22-.06-.7.27-.89.35s.17.61.09.8a.67.67,0,0,1-.31.36c-.15.09-.33.16-.5.25s-.67-.3-.82-.21l-.82.65c-.31-.5-.24-.47.06-.83l-1-.63c-.19-.13-.58,0-.77,0l-1.33.16a.75.75,0,0,1-.38,0l4.33-2.66.6,0c.28,0,.38.31.64.38s.95-.5,1.33.1l-.34.28c.11.07.3.26.43.27a1.08,1.08,0,0,1,.47,0c.49.28.55.39.95.17C269,133.15,269.18,133,269.36,132.93Z" fill="#fff"/><path d="M259.61,133.76a1,1,0,0,1,.36-.13l-.15-.22c-.13.09-.26.21-.4.3a.75.75,0,0,1-.38.12c-.12,0-.23-.27-.31-.23l-.45.18a.76.76,0,0,1,.36-.88,1.24,1.24,0,0,1,.3-.14c.29-.09.32-.19.58.08a4.2,4.2,0,0,0,.73.61c.27.18.37.13.66.11.08,0,0-.61,0-.72a.9.9,0,0,1,.37-.72.42.42,0,0,1,.16-.06l1.89-.31a7.35,7.35,0,0,1,1.23-.19h.25l-4.33,2.66a1.27,1.27,0,0,1-.32-.26c0,.15,0,.3,0,.46v.2l-.19-.09-.76-.38A2.09,2.09,0,0,1,259.61,133.76Z" fill="#fff"/><path d="M250.48,128.54a.33.33,0,0,1,.43,0c.17.17.46.49.36.55s-.12,0-.27,0,0-.16-.26-.2-.36,0-.5-.18C250.33,128.66,250.4,128.59,250.48,128.54Z" fill="#fff"/><path d="M251,129.1c.17.24.56.36.59.6l-.23-.13.18.21c-.22,0-.44-.41-.53-.36s0,0,0,.07-.22-.17-.33-.29a.35.35,0,0,0,.27,0A.19.19,0,0,0,251,129.1Z" fill="#fff"/><path d="M250.06,129.07l-.05.25a.38.38,0,0,0-.22-.38h0a.27.27,0,0,1,.25,0c.08,0,.14.05.22,0h0l.2.28A.9.9,0,0,1,250.06,129.07Z" fill="#fff"/><path d="M257.07,134.22c-.13,0-.49,0-.56-.14a2.83,2.83,0,0,0-.43-.51c-.19-.17-.31-.16-.36-.48a2.17,2.17,0,0,1,.09-.66,2.62,2.62,0,0,1,.26.25l0,.27c.28-.08.45.2.29.37s.41.19.49.2a.36.36,0,0,0-.14,0C256.53,133.71,256.9,134.05,257.07,134.22Z" fill="#fff"/><path d="M251.3,130.24c-.27.1-.18-.23-.16-.35a.19.19,0,0,1,.2.33Z" fill="#fff"/><path d="M251.06,130.49c-.27-.26-.3-.74-.44-1.07l0-.08c.07.15.32.38.29.51A.93.93,0,0,0,251.06,130.49Z" fill="#fff"/><path d="M258.11,135.59c-.15.09-.4.18-.41-.13s.24-.41.43-.58.8-.32,1.07.12l0,.06h-.11a.67.67,0,0,0-.44,0,.55.55,0,0,0-.13.12l0,0a1,1,0,0,1-.31.06h0c-.05,0,.08.17,0,.23Z" fill="#fff"/><path d="M247,127.92l.34.06c-.08-.19-.27-.15-.35-.31l-.5-.88c-.05-.09,0-.25.12-.3l.05,0c.22-.08.28,0,.36,0a.48.48,0,0,0,.13-.18c.27.17.15.35.31.5s.3,0,.47.47a1,1,0,0,1,.14.32.05.05,0,0,1,0,.05l-.05,0-.05,0s0,0,0,.08c.24.29,0,.3.37.53.21.11.3.39.53.27.07,0,0-.21.06-.27h0a.8.8,0,0,1,.31-.05,1.39,1.39,0,0,0,.38,0h0s0,0,0-.08,0-.08,0-.09h.06c.24.06.28.19.17.26a.37.37,0,0,1-.17,0c.2.29.43,0,.53.41-.12,0-.47,0-.55-.07-.22-.28-.24-.22-.54-.17l.22.39a.94.94,0,0,0-.39-.13.4.4,0,0,0-.19,0,.12.12,0,0,0,0,.08.18.18,0,0,1-.07.08l0,0c-.24.1-.63-.05-.48-.36-.17,0-.39.14-.54,0S247,128.16,247,127.92Z" fill="#fff"/><path d="M248.54,129.08c.44,0,.59.18.59.62l-.87-.43Z" fill="#fff"/><path d="M257,135.75a.52.52,0,0,1,.62.08,1.11,1.11,0,0,1-.3.29c-.15.09-.32.12-.41-.13A.19.19,0,0,1,257,135.75Z" fill="#fff"/><path d="M256.35,137.41c-.08,0-.08.16.06.22s.16.2.18.41l-.42-.09c-.06-.09-.18-.38-.11-.42s.08,0,.17.06c-.11-.12-.13-.23-.07-.27s.11,0,.22.07Z" fill="#fff"/><path d="M258.93,139.64c0,.22-.21.32-.34.45.05-.3-.26-.23-.22-.48a2,2,0,0,1,.28-.58l0-.23a1.16,1.16,0,0,1,.23-.22,3.8,3.8,0,0,1,.53-.43c.14.32-.27.79-.41,1A.76.76,0,0,0,258.93,139.64Z" fill="#fff"/><path d="M253.4,136.75c-.11-.28.06-.57-.32-.72a1.3,1.3,0,0,1,0-.88.26.26,0,0,1,.12-.13,2.43,2.43,0,0,1,.74-.16l.09,0a.13.13,0,0,0,.05-.07.28.28,0,0,1,.09-.09c.09,0,.26,0,.36-.1a.12.12,0,0,0,.05-.06c.07-.23,0-.65.17-.77.16.42.29,1,0,1.16a.59.59,0,0,1-.32.07.55.55,0,0,0-.27.09c-.15.09-.27.23-.4.32l0,0a.63.63,0,0,1-.21.07.56.56,0,0,0-.19.06.16.16,0,0,0-.08.15c0,.42.58.82.86.66a.31.31,0,0,0,.13-.27c0-.08,0-.11,0-.12s0,0,.06,0a.12.12,0,0,0,.08,0l0,0c.09-.11,0-.19.2-.29s.13-.18.21-.23.13,0,.22.16a.26.26,0,0,0-.15,0c-.12.07-.12.26-.12.44s0,.36-.15.44l-.11,0c.21.06.29,0,.5.12l.4.21.09.29a.31.31,0,0,0,.16.05c.18,0,.3-.13.38.17,0,0,0,0,0,0a.65.65,0,0,0-.09.24c0,.1,0,.2,0,.19l-.08.07c-.11.07-.25.05-.33-.15s-.22-.14-.38-.17a.42.42,0,0,1-.17-.08c-.09-.07-.22-.51-.39-.41h0c-.3.25,0,.22.16.43a2,2,0,0,0,.15.21,3.33,3.33,0,0,1,.28.36c.06.09,0,.22.1.3l.29.26c0,.06,0,.12-.12.17a.48.48,0,0,1-.36.07c-.14-.06-.39-.68-.48-.82l-.08-.11c-.15-.15-.23.07-.39,0-.35-.15-.3-.23-.4-.57A3.55,3.55,0,0,0,253.4,136.75Z" fill="#fff"/><path d="M257.09,139.94a.17.17,0,0,0-.07.13c-.17-.05-.69.37-.67,0a.2.2,0,0,1,.11-.17,1.08,1.08,0,0,1,.31-.1,1,1,0,0,0,.29-.09.18.18,0,0,0,.08-.09l0,0a.27.27,0,0,1,.12,0,.31.31,0,0,0,.12,0,.07.07,0,0,0,0-.06c0-.18,0-.24.15-.31l.09,0,.1-.05.19-.13.18-.13a1,1,0,0,1,.36-.13.56.56,0,0,1-.3.36l-.28.15-.28.13c-.11.07-.06.29-.22.38l0,0h0c-.07,0,0,.14-.1.19h0l-.08,0A.16.16,0,0,0,257.09,139.94Z" fill="#fff"/><path d="M257.21,140.58c.16.1.17.17.1.22a3.78,3.78,0,0,1-.87.12.17.17,0,0,1,0-.29A.88.88,0,0,1,257.21,140.58Z" fill="#fff"/><path d="M255.94,140.65a3.21,3.21,0,0,1-.5.41,1.93,1.93,0,0,1-.62.24c-.08-.25-.16-.34,0-.45h0a.82.82,0,0,1,.52-.07c.13-.08.17-.19,0-.29a.3.3,0,0,1,.1-.1C255.74,140.21,256.39,140.24,255.94,140.65Z" fill="#fff"/><path d="M253,138.81a.61.61,0,0,1-.08-.14l-.16.29-.19.37-.16-.15c-.08-.07-.17-.14-.24-.13l-.08,0-.08.06-.06,0-.08,0a.78.78,0,0,0-.43.06c-.12.07-.15.22-.27.48l-.33-.31a1.2,1.2,0,0,1-.34.41.2.2,0,0,1-.27,0c-.26-.28-.55-.73-.92-.8.07.15,0,.08,0,.23-.11-.22-.1-.08-.22-.17l-.26-.2-.06-.2c-.09-.08-.29-.1-.36-.21s-.23-.38-.35-.56c.05-.11.09-.23.15-.34.28.28.71,0,1-.07-.41-.1-.35-.13-.41-.53s.14-.44.31-.66.06-.47,0-.75a.66.66,0,0,1,.24-.7c.19-.21-.07-.28-.06-.58s-.08-.83,0-.93a1.7,1.7,0,0,1,.84.1c.13,0,.34.17.45.14s.21-.11.37,0l-.34.4.39.15c-.1.1-.47.33-.33.53.31.42.41.31.79.59l.14.27a2,2,0,0,0,.46.09c.36.07.4.16.26.25a1.09,1.09,0,0,1-.22.1h0c-.14.08,0,.44.12.61.32.36.32.36.25.76s-.11.34.09.62l.58.78.08.11,0,0A.13.13,0,0,1,253,138.81Z" fill="#fff"/><path d="M249,140.27a.18.18,0,0,1,.11,0c.26,0,.48.28.28.4l-.12,0C249.23,140.65,248.9,140.34,249,140.27Z" fill="#fff"/><path d="M198.18,104.18a.57.57,0,0,1,.66.07l-.6.57c-.2-.31-.36-.39-.12-.58Z" fill="#fff"/><path d="M248.69,140.58a.2.2,0,0,0,.16.27h0a.46.46,0,0,1-.31,0c-.13,0-.13-.09-.25-.13l-.26-.09-.07,0a.23.23,0,0,1-.17,0c0-.12-.06-.27,0-.31s.08,0,.16,0l-.12-.11h0c.12-.07.25,0,.39.15s.28.21.44.11Z" fill="#fff"/><path d="M275.24,139.73l1.38.28a15.52,15.52,0,0,1,1.72,1.72A13.87,13.87,0,0,1,279.4,144c.27.59,0,1.3.35,1.88s1.15,1.57.51,2c-.39.26-.4.31-.45.81a.66.66,0,0,1-.28.44.29.29,0,0,1-.25,0c-.34-.11-.5-.21-.6-.15s-.09.13-.13.32-.1.36-.22.44a2.73,2.73,0,0,1-.37.16,1.68,1.68,0,0,1-2-.27c-.21-.18-.73-.56-.95-.43s-.66-.51-.88-.76c.11.44.27.67,0,.82l-.16.07c-.08-.56-.08-1.14-.62-1.54a7.66,7.66,0,0,1,.08,1.75,8,8,0,0,1-1-.47c-.53-.27-.62-.33-1.11-.25a8.24,8.24,0,0,0-2.08.69c-.2.12-.28.59-.35.78a.42.42,0,0,1-.18.18l-.16.08-.2.1a.4.4,0,0,0-.15.15c-.12.22-.45.56-.37.86l.1.49-.59.39c-.26.17-.49.38-.73.56s-.33.42-.38.89a.5.5,0,0,1-.28.37l-.39.21c-.26.16-.73,0-1.06,0s-.13-.66-.16-.75c-.09-.27-.78-.78-1-1a9.71,9.71,0,0,0-1.92-1.48c-.29-.18-.6-.26-.72-.58a1.16,1.16,0,0,0-.58-.78,2.89,2.89,0,0,1-1.15-1.76l.5.34a1.47,1.47,0,0,1-.05-1.14,2,2,0,0,1,.43-.88l1.09-1.15c.27-.29,0-.6-.13-1.06a4.74,4.74,0,0,1,.25-2.53c0-.13,0-.77.19-.86l1.42-.06a4,4,0,0,1-.49-1.39.42.42,0,0,1,.21-.44,5.09,5.09,0,0,1,.68-.24l-.43-.48.11-.07a8.89,8.89,0,0,1,1-.47,1.28,1.28,0,0,1,1.15-.12,2,2,0,0,0,.13,1c.23.47.18.67.66.67l1.55,0c.29,0,.71.25,1,.21l.13,0c.44-.27-.24-1.51-.54-1.88a5.2,5.2,0,0,1-.81-1c-.15-.35-.6-1-.35-1.23a11.59,11.59,0,0,1,2,1.55.3.3,0,0,1,.14-.19.54.54,0,0,1,.66.13c.4.48.49.63,1,.8.4.12.6.55.86.88.1.12,1.13,0,1.29,0,.4,0,.55.2.92.49l.61.47s.06,0,.08,0,.05-.09.07-.16,0-.13.05-.15C274.9,139.12,274.81,139.64,275.24,139.73Z" fill="#fff"/><path d="M252.33,80.95c.22.29.34.35.19.61s.25.36.44.52a1.33,1.33,0,0,1-.9.13.3.3,0,0,0-.17.05l-.12.09-.12.09a.16.16,0,0,1-.21,0c-.3-.25-.48-.54-.76-.41l-.94.48c-.18.09-.31-.56-.6-.39s.26.69.41.91-.68,1-.89,1.28c.37,0,.7-.05,1,.26a2.24,2.24,0,0,0,1,.64l0,.39a1.73,1.73,0,0,1-.44.15,3,3,0,0,0-.59.18c-.36.78-.63,1.46-.91,2.14-.22.53-.56,1-.36,1.61-.52-.12-.68-.17-.92,0a2.33,2.33,0,0,0-.27.2c-.42.36-.43.4-.37,1l-.38-.46c-.08.15-.17.51-.34.61a4,4,0,0,0-.38.14.21.21,0,0,0-.1.24c.08.63.17,1.25.25,1.88.18,0,.75-.29.84-.07.24.52.24.54.76.75-.27.46-.49.89.18,1.34.12.07-.14.44-.2.54s-.35.29-.16.56.48.53.28.77-.32.27-.07.71a3.37,3.37,0,0,1,.09,1.55c-1.35-1.21-4.33-3.25-3.39-5a1.77,1.77,0,0,0,.37-1.37,3.06,3.06,0,0,1,.18-1.5c.1-.36.36-.69.17-1.11l-.45-.94.35-.39a2.19,2.19,0,0,0-.53.22l-.18.13c-.17.15,0,.53,0,.78a4.48,4.48,0,0,1-.28,1.49,2.11,2.11,0,0,1-.81-1,1.09,1.09,0,0,1-.5.65l-.23.14A.63.63,0,0,0,242,92a10.8,10.8,0,0,0-.18,1.87c.19,0,.57,0,.61.21s-.34.33-.4.39l-1,.84.17-.55-1.27.44c-.12.07-.18.44-.22.54a.24.24,0,0,1-.1.11,2.61,2.61,0,0,1-.3.12,4.18,4.18,0,0,0-.74.36l-.27.18-.28.16-.3.17c-.18.11-.33.23-.35.34-.13.9-.26,1.79-.34,2.71a11.88,11.88,0,0,1-.57,2.38c.24.16.36.06.53,0s.22-.16.48,0l.48.31.34-.17c.16-.1.17-.2.08-.59a.16.16,0,0,1,.08-.19,2,2,0,0,1,1.7.29c.35.64.68,1.29,1,1.94L212.3,121.6l-8.82-11.38a.93.93,0,0,0,.17-.17,4,4,0,0,0,.32-1.66c.05-.52-1.16-.54-.65-1.16a1.77,1.77,0,0,1,.36-.47,9.33,9.33,0,0,1,1.11.29c-.25-.25-.42-.52-.74-.55s-.39,0-.52,0a1.65,1.65,0,0,0-.22.18,7.85,7.85,0,0,1-.61.54c-.25-.14-.68-.38-.75-.61s-.06-.75-.38-.88-.87-.24-.9-.52.16-.54.32-.82-.4-.57-.55-.66c.16-.1.7.12.74.32.12.51.13.49.63.75.34.18,1.37-.45,1.64-.59a13.53,13.53,0,0,1-1.46.2c-.58,0-.11-.72,0-.88a1.37,1.37,0,0,1,.35-.33,2.63,2.63,0,0,1,1-.25,3.55,3.55,0,0,1,.65,0,.31.31,0,0,0,.18,0,2.4,2.4,0,0,0,.28-.26,3.34,3.34,0,0,0-.64-.45c-.17,0-.51.2-.66.26s-.82-.69-1-.87l1.54-1.21.87-.68c.19-.15-.07-.33-.24-.56-.33-.44-.36-.43-.21-.83a4.66,4.66,0,0,1,.38-.89,9.85,9.85,0,0,1,1.43-1.37,15.63,15.63,0,0,0,2.43-2.56c.16-.23-.25-.56-.14-.78s.33-.66.49-1a1.13,1.13,0,0,1,.42-.44,1.07,1.07,0,0,1,1-.1c-.2.26-.41.52-.62.77l1.44-.6c-.05.27-.09.55-.14.82l.75-.39c-.07-.1-.4-.45-.32-.5l.58-.32.2-.12.13-.08a1.08,1.08,0,0,1,.6-.19,5.07,5.07,0,0,1,1.31.1l.57.25c0,.12.18.45.15.55-.58,1.46-1.15,2.92-1.73,4.39l1.84-2.2-.69.29a1,1,0,0,1,.4-.7.57.57,0,0,1,.36-.08,1.27,1.27,0,0,0,.92-.12,4.4,4.4,0,0,0,.37-.27l.35-.24a17.75,17.75,0,0,1,1.85-.87l-.2.49a2.87,2.87,0,0,0,.9-.07l.8-.56.16-.09.16-.09c.16-.1.3-.22.22-.36-.29-.49-.31-.45.05-.69l.46-.27a2,2,0,0,0,.32-.23,3.74,3.74,0,0,1,.54-.58c.34-.1.94.2,1.2.28s.39.69.5.84.63.77.73.76h1.11c.16-.09,0-.81,0-1s0-.37,0-.41a.75.75,0,0,1,.33,0c.34,0,.5.06.65,0a.8.8,0,0,0,.2-.19A1.7,1.7,0,0,1,227,89a.41.41,0,0,1,.18-.06,2.22,2.22,0,0,0,.83-.06c.22-.31.39-.59.56-.86-.18-.09-.65-.24-.67-.44s-.13-.74,0-.81l1.66-.72a11.7,11.7,0,0,1,1.36-.39,6.71,6.71,0,0,1,1.57-.44c.32,0,1.43.52,1.66.38l1.29-1.19.18-.13a4.26,4.26,0,0,1,1.22-.35c.3-.07.38-.18.67,0a1.13,1.13,0,0,1,.48.65,3.48,3.48,0,0,0,1.14-.33,1.26,1.26,0,0,0,.21-.17,4.15,4.15,0,0,1,.67-.53,3.55,3.55,0,0,1,.63-.3,2.8,2.8,0,0,0,.46-.17.3.3,0,0,0,.14-.17c0-.17.06-.25.11-.28s.14,0,.34,0a4.34,4.34,0,0,0,1,.24,2.56,2.56,0,0,0,.54-.42l-1-1,2.26-1.14a6.22,6.22,0,0,1,2.15-.27c.82-.05,1.62-.08,2.45-.09a1.29,1.29,0,0,1,1.06.31c.53.37.6.55,1,.28l-.6-.48a3.17,3.17,0,0,1,1.23-.49,4.52,4.52,0,0,1,1.31.17c-.05.21,0,.63-.18.79A2.47,2.47,0,0,1,252.33,80.95Z" fill="#fff"/><path d="M195.38,110.21l.11-.3c.14,0,1.08,0,1,.29a.15.15,0,0,1-.07.1A1.52,1.52,0,0,1,195.38,110.21Z" fill="#fff"/><path d="M192.05,110.93c-.43-.12-.48-.11-.74-.49s.16-.36.1-.61-.34-.22-.23-.58c0-.1.26-.61.17-.69-.24-.21-.42-.27-.4-.55s0-.69.06-1a9.1,9.1,0,0,1,.2-1.42c.07-.42.52-.85.73-1.18a2.9,2.9,0,0,1,1-.94,3.31,3.31,0,0,0,.91-1.4,1.39,1.39,0,0,1,.56-.62c.25-.15.54-.2.72.07.32.49-.52,1.29-.7,1.53-.35.48-.74.94-1.11,1.4a4.51,4.51,0,0,0-.48,1.33,2.66,2.66,0,0,0-.32.85c0,.32,0,.64,0,1a2.55,2.55,0,0,0,.28,1.76,2.18,2.18,0,0,0,1.82.76.65.65,0,0,1-.33.38c-.3.18-.72.31-.94.42A1.93,1.93,0,0,1,192.05,110.93Z" fill="#fff"/><path d="M236.94,134.12c0,.23,0,.3-.08.35a1.24,1.24,0,0,1-.24.09c-.35.11-.3.13-.52-.24-.09-.16-.27-.61-.43-.71a4.14,4.14,0,0,0-1.61-.81,4.21,4.21,0,0,1-1.5-.79c-.07.22-.1.62-.27.77l-.91.78-.25.22.27.39c0,.28,0,.57-.08.85-.07.8-.15,1.61-.22,2.42a2.52,2.52,0,0,1-.41.78c-.15.29.1.42.35.75a5.37,5.37,0,0,1,.73.92,3,3,0,0,0,.5,1,2.49,2.49,0,0,0,1.05.63,5,5,0,0,1,1.09.59.58.58,0,0,1,.1,1c-.16.1-.38.07-.62-.2a8.89,8.89,0,0,1-.8-1c-.25-.34-.4-.32-.8-.43.15.25.38.46.3.7s-.18.51-.27.76c-1.37-.74-2.68-1.57-4-2.39a9.53,9.53,0,0,1-1.12-.7,7,7,0,0,1-.6-.73l-1.71-2.1c0,.3,0,.59.05.88L212.3,121.6l28.84-17.73.22.45a5.55,5.55,0,0,1,.54,2.05,8.42,8.42,0,0,1,.15,2.11c-.06.47-.1.95-.16,1.42,0,.26-.35.46-.52.64s-.42-.17-.53-.13-.16.39-.19.46c-.16.4-.09.49.09,1a3.94,3.94,0,0,1,0,2.08,2.72,2.72,0,0,1,2.08,1.17c.33.53.46.61.25,1.06a1.15,1.15,0,0,1-.51.55l-.23.14-.55-.91c-.21-.35-.47-.16-.46-.6,0-.27-.25-.47-.44-.35a4.17,4.17,0,0,1-.32.27.32.32,0,0,1-.42-.06,3.21,3.21,0,0,1-.36-.89l-.76,0c-.16.11-.23.58-.3.76s-.21.51-.31.76c-.49-.33-.36-.88-.33-1.28-.25,0-.37-.07-.46,0a.56.56,0,0,0-.17.22,2.46,2.46,0,0,0-.2.66,1.53,1.53,0,0,1-.28.75s-.34.47-.11.54a7.12,7.12,0,0,1,.91.3c.23.11.32.15.38.11s.08-.12.16-.27a.84.84,0,0,1,.32-.35,4.11,4.11,0,0,1,.95-.3c-.16.74-.3,1.48-.45,2.21a3.06,3.06,0,0,1,1.08.27l1.29.79-.87.32,1.28.13-.25.81.92-.22a15.16,15.16,0,0,1,.49,2.44,4,4,0,0,1-.22,2.26c-.42.67-.84,1.34-1.29,2l-.43.6c-.11.16-.08.14.12.33s.28.3.15.38a.25.25,0,0,1-.12,0c-.09,0-.4-.27-.49-.33l.13-.22a1.22,1.22,0,0,0-.74.13.48.48,0,0,0-.23.29c-.07.31-.38.9-.24,1.25.05.11.18.6.29.65l.88.41c.42.2.86.33,1.29.49a2,2,0,0,1,1.15.68c.23.27.89.84.84,1.15a23.45,23.45,0,0,1-.52,2.58c-.37-.1-.34-.58-.6-.65L242,134.6a1.92,1.92,0,0,0-1.57,0l-.23-.38c-.44.3-.3.31.06.85a4.41,4.41,0,0,1,.42,1.06,1.4,1.4,0,0,0,.31.4c.15.17.18.2.26.15l.14-.1c.11-.07.84.61,1,.72s.84.14,1.11.18a2.84,2.84,0,0,1,1,.29c.31.21.5.66.79.91a8.11,8.11,0,0,0,.95.63,2.74,2.74,0,0,1-1.39,0,1.8,1.8,0,0,1-1-.51,5.73,5.73,0,0,0-1.23-.91l-1.54-.42c-.23-.07-.65-.93-.79-1.16a12,12,0,0,0-1-1.18,13.87,13.87,0,0,0-2.18-1.87C236.94,133.56,236.94,133.84,236.94,134.12Z" fill="#fff"/><path d="M179.29,120.67h0l-.19,0a.18.18,0,0,1,.06-.24.38.38,0,0,1,.22,0A.21.21,0,0,1,179.29,120.67Z" fill="#fff"/><path d="M179.31,120.93a.76.76,0,0,1,.26-.61.29.29,0,0,1,.15,0c-.08.13-.15.27-.22.4A2.58,2.58,0,0,0,179.31,120.93Z" fill="#fff"/><path d="M179,120.74c.27,0,.2.09.23.27l-.29.17A3.35,3.35,0,0,0,179,120.74Z" fill="#fff"/><path d="M178.88,121.89s-.09,0-.16-.09c-.18-.25-.16-.22,0-.41a.56.56,0,0,1,.13-.15c.05,0,.11,0,.23,0S179,121.82,178.88,121.89Z" fill="#fff"/><path d="M179.08,121.48c0,.28,0,.56-.06.84-.17-.12-.19-.25,0-.34S179,121.64,179.08,121.48Z" fill="#fff"/><path d="M178.44,122.07c0,.12-.05.24-.09.35-.23-.19,0-.33,0-.48Z" fill="#fff"/><path d="M187.88,128.47c-.09.26-.31.47-.25.78-.06-.22-.23-.28-.42-.34a1.21,1.21,0,0,1,.32-.32A1.27,1.27,0,0,1,187.88,128.47Z" fill="#fff"/><path d="M178.91,122.92c-.05-.16,0-.31.08-.38h0c0,.23,0,.45-.06.67l-.2-.21Z" fill="#fff"/><path d="M178.69,122.63c.1-.16-.07-.28,0-.39a.11.11,0,0,1,0-.06c.09-.06.25.12.3.24l-.1,0c-.08,0-.1.14-.09.25s0,.16-.07.19a1.59,1.59,0,0,1-.22.08c0-.17,0-.11-.07-.27l.1-.08c-.16-.12-.18-.28-.06-.37Z" fill="#fff"/><path d="M185.41,128s.13,0,.22.07l-.07,0,.14.13C185.36,128.22,185.32,128,185.41,128Z" fill="#fff"/><path d="M178.78,123.1c.26.26.21.4.18.68l0-.21c-.1,0-.09,0-.19,0A.27.27,0,0,0,178.78,123.1Z" fill="#fff"/><path d="M178.45,122.9l0,0c-.05.15-.11.3-.17.45-.19-.23-.07-.3.08-.39Z" fill="#fff"/><path d="M178.2,123.31a.22.22,0,0,1-.07.26l-.06,0-.08-.13a.23.23,0,0,1,.07-.15A.18.18,0,0,1,178.2,123.31Z" fill="#fff"/><path d="M186.3,130l.13-.06c0,.19,0,.36.22.44a.85.85,0,0,0-.12.51C186.26,130.64,186,130.23,186.3,130Z" fill="#fff"/><path d="M184.31,133.61a.21.21,0,0,0-.07-.29l.14-.09c0,.17.12.2.25.13-.23-.13-.25-.22-.17-.27s.65,0,.34.32l.23.06c-.21.16,0,.38.11.61-.17-.16-.26-.33-.41-.23l0,0h0C184.58,134,184.37,133.76,184.31,133.61Z" fill="#fff"/><path d="M228.91,160.31h0c.49.45,1,.76,1.14,1.34l-.4-.09a4.46,4.46,0,0,1,1,1.61l1.3,3.1c.11.29.23.57.35.85l-.43.62,0,0a1.19,1.19,0,0,1-.8.09,11.75,11.75,0,0,0-.9-.85,2.08,2.08,0,0,1-.77-.9c-.13-.34,0-.83-.25-1.15a5.67,5.67,0,0,0-1-.86c-.16-.13-.47-.79-.36-.89a2.75,2.75,0,0,0,.59-.84,2.18,2.18,0,0,0,.08-1c0-.47.13-.54-.19-1-.12-.18-.14-.26-.08-.29S228.75,160.25,228.91,160.31Z" fill="#fff"/><path d="M203.41,110.27l.08-.05,8.82,11.38-29.25,18c-.08-.11-.26-.18-.29-.37s.3-.46.37-.58a.68.68,0,0,1,.26-.28l.22-.12c-.09,0-.33.12-.41,0l.17-.2-.11-.21a1.45,1.45,0,0,0-.2-.67c-.07-.13.13-.22.13-.35a.47.47,0,0,1,.3-.45l.09,0a.57.57,0,0,0,.17-.16l-.06-.2.2-.17a1.64,1.64,0,0,1,.38-.17c-.21-.2,0-.25.14-.36-.1,0-.48,0-.44-.2s-.09-.15-.3-.32-.19-.35-.47-.4-.25-.13-.41-.32-.48-.72-.18-.93.23-.56.36-.83c0,.36.37,1,.8.83.06.48-.24.84.19,1.26a.81.81,0,0,0,.89.23.37.37,0,0,0,.14-.15c0,.12.06.24.1.35a.33.33,0,0,0,.18,0c.23-.14.2-.58.4-.74a.77.77,0,0,1,.57,0c.19.15.37.1.59.1l-.11-.2c-.08,0-.18.09-.27.13.09-.23.72-.64.71-.89a1,1,0,0,1,.47-.77.64.64,0,0,1,.45-.1l-.25,0a.37.37,0,0,0,.49.09.31.31,0,0,0,.16-.26l-.11-.35.12-.13c0-.15.12-.27.1-.44a.87.87,0,0,1,0,.39.36.36,0,0,0,.16,0c.27-.17-.52-.77-.68-1a.76.76,0,0,1-.22-.54c0-.18-.24-.34-.17-.57a.34.34,0,0,1,.14-.21c.26-.16.75.26,1,.12s.1-.43,0-.57-.34-.56-.38-.56l-.13.15-.35-.1-.43-.39a2.38,2.38,0,0,1,.65-.84l.1-.05.79-.35.11-.06c.16-.1-.12-.1,0-.31s.29-.23.37-.41a.16.16,0,0,1,.08-.08,3.19,3.19,0,0,1,.41-.15c-.25-.19-.75,0-1,0l-.08-.23c-.55.55-1.11,1.14-1.69,1.7l-.35.29a1,1,0,0,0-.67-.13c-.36.06-.31.06-.52-.29a1.55,1.55,0,0,0-.43-.54,3.29,3.29,0,0,1-.66-.56c-.08-.15,0-.54,0-.7,0-.39.18-.74.18-1.14a2.52,2.52,0,0,1,0-.8.18.18,0,0,1,.07-.07c.15-.09.23-.14,0-.3a.91.91,0,0,0-1.09-.12l-.27.15c-.24.15-.28.26-.3.7a.75.75,0,0,0,.44.84c.36.19-.36,1.65-.35,1.86,0,.61,0,1.61.81,2,.35.17.76-.09,1.14.14s.06.56,0,.79c-.08.4-.21.61,0,1a6.91,6.91,0,0,1,.65,1.12c.14.48-.13.64-.39.9-.11.1,0,.26.09.41s0,.18-.09.24l-.09.05-.16.12c-.07,0-.12,0-.27-.13s-.36-.3-.4-.45c-.12-.33-.74-.42-1-.54-.12,0-.22-.24-.34-.32a4.7,4.7,0,0,1-.53-.31c-.14-.12-.2-.43-.38-.38s-.34-.17-.49-.28a.91.91,0,0,1,0,.88c-.08.26-.06.57-.16.82a.75.75,0,0,1-.31.33.84.84,0,0,1-1.09-.06c-.49-.59-1.17-1-1.61-1.67s-.35-.56-.24-1.1a3,3,0,0,1,.34-.79,2.08,2.08,0,0,0,.34-.94,10.1,10.1,0,0,1,.1-1,8,8,0,0,0-.24-2.16,11.76,11.76,0,0,1,0-2.12,4.36,4.36,0,0,1,.31-2,13.07,13.07,0,0,1,1.23-1.75c.17-.21,0-.68.09-.93a1.07,1.07,0,0,1,.44-.48l.17-.09a2,2,0,0,0,.2,1.23c.22-.21.08-.82.08-1.14l.41.37c0-.24,0-.48,0-.71,0,0,0-.07.09-.1a3.24,3.24,0,0,1,.35-.16c0,.17.05.33.08.51a.26.26,0,0,0,.17,0c.06,0,0-.13,0-.22s-.08-.19,0-.24c.41-.08.77-.13,1.12-.18s.06.44,0,.51l-.1.08a5.68,5.68,0,0,1-.61.25c.25.13.41-.07.67.11a.55.55,0,0,0,.21-.13l.16-.13c.13-.06.27-.1.37-.16a.3.3,0,0,0,.16-.29c.15-.13.47-.1.59-.11s0,.17,0,.2a1.77,1.77,0,0,1-.35.09c.17.29.45.2.69.05l.24-.17.2-.15a2.25,2.25,0,0,1,1.3-.26,7.08,7.08,0,0,0,1.47-.12,1.64,1.64,0,0,1,1.29.17c.39.29.37.29.41.71,0,.26.08.4-.06.57a1.72,1.72,0,0,1-.47.48,2,2,0,0,1-.46.19,11.11,11.11,0,0,1-2.74.54c.39.11,1.32.15,1.58.48s.74,1.06,1.13,1,1,.05,1.27-.13a.39.39,0,0,0,.13-.12c.12-.2-.22-.46-.42-.34s-.42,0-.69-.12c0-.24.08-.34.17-.4a1.69,1.69,0,0,1,.45-.11l1.16-.22a8.17,8.17,0,0,1-.79-.58c.1-.3.2-.61.31-.9,0-.14.07-.48.21-.56l.94-.23c-.08-.17-.18-.5-.33-.61l-.57-.23c-.12-.27-.25-.53-.38-.8,0-.09-.49-.18-.6-.22l1-.41c.23-.11.65.15.93.26-.13.11-.59.32-.56.51s.41.31.7.42a.33.33,0,0,0,.3,0,3.28,3.28,0,0,0,.32-.3c.24-.21-.12-.3-.14-.6,0-.13.2-.34.26-.45l.5-.86c.25-.44.49-.88.75-1.31.42.32.42.32.84.2.15-.08.15-.22.16-.36s0-.28.09-.33a3.9,3.9,0,0,0,.42-.2.76.76,0,0,0,.29-.32.84.84,0,0,1,.29-.36,1.89,1.89,0,0,1,.39-.15l.06.37a1.43,1.43,0,0,0,.35-.1c.1-.06.1-.17.08-.47,0-.47-.19-.4-.66-.57a1.85,1.85,0,0,1,.63-.6,3.23,3.23,0,0,1,1.21-.43l1.42-.21a5.75,5.75,0,0,1,1.2.13c-.09-.15-.33-.71-.5-.73l-1.28-.13c-.28,0-.3-.6-.37-.83s-.59-.11-.78-.12c.09-.38.18-.75.27-1.13s-.28-.84-.39-1.12c0-.11.08-.23.27-.35a5.47,5.47,0,0,1,.81-.37l3.89,5-.19.5a.21.21,0,0,1-.09.09,5.21,5.21,0,0,1-.61.23A2,2,0,0,0,203.41,110.27Z" fill="#fff"/><path d="M176.56,135l0,.1-.13-.06c0-.05-.09-.15,0-.19a.17.17,0,0,1,.12,0l0,.09,0,0s.1,0,.16-.06,0,.12-.09.14Z" fill="#fff"/><path d="M177.38,137.8c.11,0,.2,0,.23.14Z" fill="#fff"/><path d="M178.46,138.42a.22.22,0,0,1,.11.29l-.07,0A.33.33,0,0,1,178.46,138.42Z" fill="#fff"/><polygon points="176.26 137.11 176.32 137.21 176.23 137.18 176.26 137.11" fill="#fff"/><path d="M175.89,136.7l.19,0a.2.2,0,0,0,.31.1l0,0c0,.1,0,.16,0,.19s-.41,0-.56-.07l0-.12.17,0Z" fill="#fff"/><path d="M177,137.64h0l.05.27C176.91,137.8,176.9,137.69,177,137.64Z" fill="#fff"/><path d="M175.53,136.66c-.41,0-.13-.39-.06-.54v0c.07,0,.25.18.1.3l.13,0c-.09.1-.09.19-.12.35l-.11-.06Z" fill="#fff"/><path d="M177.06,138.13c-.08,0-.06-.13-.19-.09l.06-.19C177.08,137.92,177.13,138,177.06,138.13Z" fill="#fff"/><path d="M180.85,140.94l0,.07h-.15Z" fill="#fff"/><path d="M182,139.1c.12-.05.78-.28.54.11a4.07,4.07,0,0,1-.6.64l0,0c-.12.07-.26,0-.39,0s-.18.36-.24.47a.38.38,0,0,1-.14.16l-.13.06-.11,0c-.06,0-.08.11,0,.3l-.13.08-.09,0-.07.06-.38.24a.92.92,0,0,0,0-.55c-.11-.23,0-.35.1-.43a2.85,2.85,0,0,1,.37-.16.77.77,0,0,1-.06-.44l-.3.4c-.05,0-.32,0-.39.08l0-.1a.21.21,0,0,0-.11,0,.34.34,0,0,0-.11.13.37.37,0,0,1-.1.11s-.1,0-.19,0l-.1-.1c.07-.11.31-.34.3-.48s-.18-.26-.3-.47l-.24.23c.06-.2,0-.38-.23-.42l.07-.06a.21.21,0,0,1,.25,0,.24.24,0,0,1,.11-.16,1.33,1.33,0,0,1,.26-.09l-.11-.1c.11,0,0,0,.18,0l0,0c-.2,0-.46-.33-.48-.55a.14.14,0,0,1-.06.09c-.19.12-.68-.3-.42-.6l0,0a.79.79,0,0,0-.21.21.55.55,0,0,1-.15.18.22.22,0,0,1-.13,0c.08.06.09.08.06.1a1.44,1.44,0,0,1-.26,0l.12.14c-.35,0-.19-.19-.28-.42s-.08-.17-.24-.31-.18-.14-.07-.22l-.17-.14c0,.16,0,.24,0,.27s-.15-.06-.11-.24c-.12.18,0,.34.11.51s.25.3.18.34h-.08c-.11,0-.08-.11-.12-.21s-.13-.16-.21-.3-.23-.44-.14-.65l-.09,0c0,.14,0,.29-.1.35a.2.2,0,0,1-.11,0c.26,0,.23.16.12.23a.2.2,0,0,1-.15,0c.15-.15.09-.23-.13-.15,0-.12.09-.25.06-.31a.67.67,0,0,1-.09-.4l-.12,0,0-.07c-.1,0-.15.06-.21-.06l.14,0-.27-.19a.38.38,0,0,1,.11-.11.32.32,0,0,1,.21,0l-.29-.08L176,136l.11-.1c-.13-.08-.16-.23-.1-.27s.07,0,.13.05,0-.09,0-.09a.16.16,0,0,0,.08,0,.93.93,0,0,1,.36-.42l.14-.07c.18.33-.13.59,0,.8l-.15.08.25-.06v.29h.07c0-.15.21-.41.47-.57a.53.53,0,0,1,.42-.11c.39.17,0,1,.41,1.18l-.07,0a.33.33,0,0,0-.13.29,1.07,1.07,0,0,1,1.36.14c.44.35.89.14,1.37.61a.3.3,0,0,0-.29,0,.25.25,0,0,0-.08.09c.19-.12.83,0,.73.33a.09.09,0,0,0,.07,0l.15-.12.18-.13c.15-.09.3-.12.43.07C182.2,138.48,182.1,138.7,182,139.1Z" fill="#fff"/><path d="M180.43,141.32a.61.61,0,0,1-.17.24.2.2,0,0,1-.13,0,1.12,1.12,0,0,1,0-.23l.38-.24A.82.82,0,0,0,180.43,141.32Z" fill="#fff"/><path d="M177.28,138.35c.18.06.4.27.51.2l0,0c.24.37.17.43.05.77a1,1,0,0,1,.61.47c.06.18.14.35.21.52s0,.13,0,.15l-.06,0-.06,0-.06,0c-.23.26-.29.91-.63,1.12a.46.46,0,0,1-.33.06l0-.2-.33.1.12-.24-.25.06a.4.4,0,0,0,.12-.36c0-.15.22-.29.32-.38a.46.46,0,0,0-.15.06,1.78,1.78,0,0,0-.31.31,3,3,0,0,1,.05-.69,1.47,1.47,0,0,1-.61.14c0-.1.08-.29,0-.36s-.27-.15-.18-.35a.13.13,0,0,1,.06-.07,1.39,1.39,0,0,1,.3-.08l.06,0c.1-.06.09-.18.14-.33l-.37.07c-.05-.28,0-.67.19-.82a.38.38,0,0,1,.21,0l0,.16a1.48,1.48,0,0,1,.25-.28A.11.11,0,0,1,177.28,138.35Z" fill="#fff"/><path d="M168.27,132.7c.12,0,.18.3.42.32,0,.18,0,.38-.12.45a.25.25,0,0,1-.13,0c.19.23.22.47,0,.58l-.1,0,0,0c-.16.1-.23.55-.29.71l-.32.28c-.11.09,0,.17-.07.29a.66.66,0,0,1-.25.27,1.55,1.55,0,0,1-.32.14,1.35,1.35,0,0,1-.42.13l-.36-.11-.7.59c-.33-.22.13-.39,0-.69l-.12,0-.07-.12,0,0c-.1.06-.21,0-.2-.15-.09.05-.24.19-.4.29s-.34.16-.47,0c.29-.18.49-.49.81-.68l.05,0-.09-.1a.29.29,0,0,1-.1.11.47.47,0,0,1-.24.06l.2-.37a2.8,2.8,0,0,0-.56.16l-.06.06a1,1,0,0,1-.28.35.74.74,0,0,1-.3.09c0-.1,0-.13.08-.17l0,0-.11-.14a.49.49,0,0,0,.24,0,.09.09,0,0,0,0-.09c0-.13-.31.06-.31-.25a.09.09,0,0,1,0-.08.64.64,0,0,1,.21-.06.66.66,0,0,0,.2-.05c.06,0,.06-.1-.06-.24-.16.06-.24.16-.41,0l.05,0c.26-.16.3-.1.69,0,.08,0,.29-.05.38,0a.16.16,0,0,1,0,.25l0,0a5.7,5.7,0,0,0,.57.27,4.56,4.56,0,0,1-.15-.5c0-.21.29-.14-.13-.42l0,0c.15-.09.4,0,.61.09-.19-.13-.27-.36-.1-.47s.37,0,.64.13l-.35-.35a.67.67,0,0,0,.3-.09.8.8,0,0,0,.16-.14,1.27,1.27,0,0,1,.22-.17l.07,0c-.2-.13-.17-.24-.06-.31s1-.13,1,.24a.32.32,0,0,1,.1-.1A.9.9,0,0,1,168.27,132.7Z" fill="#fff"/><path d="M183,139.8a.19.19,0,0,0,0-.22l29.25-18,12.64,16.33c0,.17,0,.22-.11.28l-.16.09c-.28.15-1-.2-1.34-.3.15-.15.57-.37.38-.67a1.71,1.71,0,0,1-.22.2,3.9,3.9,0,0,1-1.3,0c-.25,0-.73-.4-1-.54-.06,0-.18,0-.33.09a12.64,12.64,0,0,0-1.32,1.14l-.18.13a7.36,7.36,0,0,1-1.61.56c-.27.09-.51.27-.81.1s-.54-.37-.69-.28a.78.78,0,0,0-.2.22,1.19,1.19,0,0,1-.36.35,3.48,3.48,0,0,1-.54.24c-.26.1-.63-.11-.91-.08a1.31,1.31,0,0,1-1.09-.29c-.34-.2-.66-.52-1-.4a2.49,2.49,0,0,0-.32.15c-.2.13-.19.25-.21.7,0,.22.78.48,1,.57.7.34,1.39.74,2.07,1.12-.15-.28-.3-.55-.45-.81a3.58,3.58,0,0,1,1.07,1.05l.26-.16a2,2,0,0,0,.84-.75,5.92,5.92,0,0,0,.06-1.54c.26.3.58.85,1,.87a4,4,0,0,0,.69,0c.19,0,.31-.18.51-.06s.48.34.62.28.27.12.43.36,0,.89,0,1.15l-.24-.16a2,2,0,0,0,.38.84c.21.27.1.3,0,.54l-.4.73c-.08.15.22.53.15.67a.39.39,0,0,1-.2.1.52.52,0,0,0-.16.05c-.14.21-.25.38-.34.55s.13.53,0,.73c-.26.35-.51.72-.76,1.08-.08.11-.05.18,0,.33s-.1.25-.23.37-.49.56-.74.83,0,.51-.26.66l-.25.17c-.15.09-.22.07-.5-.2l-1.23-1.15a7.7,7.7,0,0,0-2.06-1.22,1.2,1.2,0,0,0-1-.19c-.25,0-.73-.58-.93-.77a5.26,5.26,0,0,0-1.09-.68c-.22-.12-.48-.08-.72-.22l-1.59-.82c-.24-.12-.56-.38-.76-.26a3.7,3.7,0,0,1-.55-.77c.14.36.28.72.42,1.07a5.94,5.94,0,0,1-1.58-.69c0,.44.81.71,1.15.91l2.12,1.22c.42.25.66.66,1.1.78.19.06.58.09.74.24l.8.79c.15.15.39.49.6.52a4.76,4.76,0,0,1,.86.2,10.84,10.84,0,0,1,1.51,1.05c.17.12.53-.14.72-.08l.86.28c.48.14,1.23.17,1.15.8.31-.07,1,.28,1.18.15l1.68-1.92a1.48,1.48,0,0,1,.33-.35.27.27,0,0,1,.28,0,4.69,4.69,0,0,1,.56,1.13,8.62,8.62,0,0,1,.5,2.17,6.48,6.48,0,0,1,.26,1.75,18,18,0,0,0-.17,4.51c0,.12,0,.43.08.79l-12.15,7.47-.21-.07-1.43-.54c-.25-.1-.34-.38-.48-.61-.3-.47-.59-.94-.88-1.42s-.25-.43-.69-.61-.49-.22-.71-.09l-.15.1c-.12.08-.29.26-.46.37a.42.42,0,0,1-.37.07l-1.32-.44s-.12,0-.22.08a6.3,6.3,0,0,0-1.22,1.08l-.55,1.1a.52.52,0,0,1-.19.23,1.8,1.8,0,0,1-.44.14,2.33,2.33,0,0,0-.58.19.71.71,0,0,0-.21.2l-.74,1c-.2.14-.5,0-.69,0l-1.58-.14a3.64,3.64,0,0,1-1.62-.41l-3.06-1.55-1-.5c-.16-.08-.27-.65-.32-.79s-.16-.76-.38-1l-1.1-1a5.6,5.6,0,0,1-.93-.83,2.35,2.35,0,0,1-.13-.69c-.19-1-.39-2-.59-3.07a2.77,2.77,0,0,1,.32-1.72c.12-.32.24-.4,0-.76l-.77-1.34c-.3-.53.55-1.17.36-1.76-.13-.4-.43-.89-.19-1.18,0,0,.19,0,.35.06a.6.6,0,0,0,.45,0,2.65,2.65,0,0,1,.36-.38l.58-.07a7.63,7.63,0,0,1,.39-.93,5.49,5.49,0,0,1,1.16-1.47,3.86,3.86,0,0,1,.35-.31,4,4,0,0,0,.57-.14c.13-.09.14-.33.24-.43a4,4,0,0,1,.37-.2c.16-.09.31-.15.44-.23a.85.85,0,0,0,.37-.42.33.33,0,0,1,.14-.17,2,2,0,0,1,.69-.11c.15.55.13.59.65.87.24.13.09.65.07.86A3.46,3.46,0,0,0,195,147l1.58-.43c.41-.11.62.33,1.06.28s.63-.26,1-.23a1.1,1.1,0,0,0,.61-.05c.14-.08.17-.26.09-.6,0-.16-.36-.23-.39-.37s-.13-.47-.08-.55a2.34,2.34,0,0,1,.54-.53,1.6,1.6,0,0,1,.45-.18c.11,0,.19.22.33.17l.68-.24c.18-.06.25,0,.46.13s.1-.06.11-.1a.26.26,0,0,1,.07-.13l1.17-.3a1.4,1.4,0,0,0,.39-.13.84.84,0,0,0,.27-.37c.12-.24.18-.36.29-.43a.93.93,0,0,1,.41-.09,1.29,1.29,0,0,0,.57-.18.83.83,0,0,0,.38-1c-.15-.42-.42-1.89-.92-2.1-.32-.13-.39-.83-.53-.87s-.16.21-.18.29a.23.23,0,0,1-.2.07.36.36,0,0,0-.17,0c-.11.1,0,.43-.07.56a.48.48,0,0,1-.18.16l-.24.13c-.27.17-.62-.07-.9,0a2.13,2.13,0,0,0-.29.09c-.05,0-.08.09,0,.19.11.27.1.26-.07.44s-.76.07-1,.07c-.45,0-1.72-.61-1.69-1.22l-.29.25c-.35-.36,0-.76.23-.89a1.64,1.64,0,0,0,.75-.78l-.45,0c0-.12.06-.21.18-.29a3,3,0,0,1,.37-.18l.17-.08c.18-.11.16-.23.25-.51a1.23,1.23,0,0,1,.36-.62c.17-.09.32-.16.45-.24a1,1,0,0,0,.3-.27c0,.15.21.19.36.18s.24-.13.38-.07a4,4,0,0,0,.89-.19.52.52,0,0,0,.22-.07,1.17,1.17,0,0,0,.18-.15,1,1,0,0,1,.2-.18l.19-.1a1.19,1.19,0,0,0,.46-.67c.1-.27-.33-.59-.59-.67s-.63,0-1-.09-.77-.26-1.1-.12h-.45l-.55-.06v-.2l.37-.14c-.37-.3-.26-.54,0-.69a2,2,0,0,1-.61-.15l.32-.21c-.29-.21.19-.22.11-.41a.12.12,0,0,0-.2-.06.94.94,0,0,0-.16.15c-.24.21-.52.4-.51.78a.72.72,0,0,0-.44.67l0-.16c-.3.18.13.48.36.56a.42.42,0,0,0,.38-.06c.12-.07.22-.18.36-.26,0,.22,0,.3-.12.36l-.22.11a.24.24,0,0,0-.09.09c-.1.2-.19.65-.41.79a.28.28,0,0,1-.19,0c-.17-.49-.31-.33-.75-.3.09-.18.51-.78,0-.68a.49.49,0,0,0-.17.07l-.24.17c-.1.06-.35,0-.47,0,.09,0,.2-.07.29-.12a.21.21,0,0,0,.1-.25.26.26,0,0,1-.11.11,2,2,0,0,1-.27.12,1.59,1.59,0,0,0-.26.12c-.06,0-.1.07-.1.12,0,.22-.14.72,0,.93a2.13,2.13,0,0,1,.3.51c0,.12-.23.26-.17.38.2.39.42.64.29,1s.19.63.52.81.79.07.83.16a.13.13,0,0,1-.07.18l-.19.08a1.1,1.1,0,0,0-.2.08.14.14,0,0,0-.08.1c0,.33-.09.66-.14,1-.21-.23-.11-.34,0-.54-.16,0-.3.1-.49.13s-.36.18-.6.24a.78.78,0,0,0-.24.28c-.06.09.19.18.17.25a.22.22,0,0,1-.1.16.76.76,0,0,1-.42,0c0,.28.3.35.53.47s.33.15.3.49c.42,0,.75-.08,1,.36-.16,0-.32-.07-.41,0s-.08.09-.08.21c.23-.08.36,0,.3.25s.08.25.3.41c-.21.07-.31.18-.53,0s-.15-.06-.19,0-.07.1-.08.21c-.52-.4-.65-.39-.52-.92-.33.2-.36.16-.81,0a4.57,4.57,0,0,0-.82-.39c-.43-.07-.47-.3-.73-.7s-.35-.29-.75-.35a3.56,3.56,0,0,0-1.65,0,1.48,1.48,0,0,1-.72-.23,1.39,1.39,0,0,0-.86-.4c.07.17.06.26,0,.29s-.23,0-.37-.18-.15-.17-.19-.15-.06.08-.15.19-.33.35.07.57c.14.07.14.44.43.48a3.07,3.07,0,0,1,.82.09c.25.1.44.37.7.42s.51.14.74,0,.41-.25.33.09c.36.06,1.78-.13,1.81.41-.14,0-.65-.19-.8-.11a.54.54,0,0,0,0,.52c.1.18.18.11.36.12.51.07,0,.46.18.6s.12.51,0,.58-.11,0-.19-.1a.58.58,0,0,0,.33.7c.17.1.09.26,0,.34a.21.21,0,0,1-.24,0c-.33-.26-1.32.4-1.28-.31a1.71,1.71,0,0,0,.67-.27l.12-.09c.12-.12.37-.29.43-.45s-.14-.2-.06-.37-.7-.64-.77-.6-.31.17-.39,0a.21.21,0,0,0-.31-.1,1.23,1.23,0,0,0-.74-.05c-.25.16-.53,0-.8,0-.5-.12-1,0-1.38-.37s-.39-.35-.82-.32a.77.77,0,0,0-.35.08.22.22,0,0,0-.11.19,3.82,3.82,0,0,1-.43,1.29l-1,.21c-.17.1-.14.49-.17.64s.47.41.49.63-.27.52-.35.7a2.44,2.44,0,0,0,0,1.58c0,.18.46.11.47.43s-.06.59.14.72c-.07.08-.28.22-.27.35s.12.43,0,.49a3.38,3.38,0,0,1-.33.23l-.49.27c-.25.15-.15.55-.29.73s-.75-.07-.67-.35a.38.38,0,0,1-.31.1.45.45,0,0,0-.26,0,.22.22,0,0,0-.09.11.33.33,0,0,1-.14.16L185,150l-.11.06a.28.28,0,0,0-.13.16,2.47,2.47,0,0,0-.33-.53l-.24-.27c-.53-.11-.45-.25-.62-.58s-.3-.89-.63-1.11a2,2,0,0,1-.63-.8c-.15.15-.35,0-.4-.15s.23-.35.31-.42c-.1-.17-.06-.23,0-.26a.49.49,0,0,1,.23,0,.49.49,0,0,0,.23,0,2.15,2.15,0,0,1,.39-.36,1.32,1.32,0,0,1,.41-.15.66.66,0,0,0,.23-.09l.14-.1.15-.11a.57.57,0,0,1,.18-.08,1.68,1.68,0,0,0,.53-.21l.12-.09c.36-.37-.38-1.21-.67-1.57s-.3-.48-.68-.39c-.22,0-.51-.27-.55-.4-.14.1-.16,0-.24,0s-.29.11-.34.11c-.21,0-.31-.06-.45,0a.33.33,0,0,1-.4,0l.1-.13a.42.42,0,0,1-.39-.16c.18-.13.39-.22.47-.44a.29.29,0,0,1,.09-.16c.05,0,.11,0,.16.06s.11.09.17.05.44-.42.33-.52a2.88,2.88,0,0,0-.58-.43c.19-.11.27-.15.34-.09s.14.13.27.07l.22-.11a.86.86,0,0,0,.29-.32l-.2,0A1.21,1.21,0,0,1,183,139.8Zm21.56-8.74c.08.15,0,.41,0,.56a.64.64,0,0,1,.79.18,2.5,2.5,0,0,0,.87.76c.26.16.54.09.8.22a1.48,1.48,0,0,0,1,.26c-.19.23-.26.23-.1.56a4.74,4.74,0,0,1,.23.63,1.57,1.57,0,0,0,.42.59c.21.24.24.15.5.07s.34.08.52,0l.69-.15a.55.55,0,0,0,.17-.07,6.12,6.12,0,0,0,.63-.59,4.45,4.45,0,0,1-.75-.89c-.28-.53-.31-.19-.74-.41l.17-.08-.3-.24-.27.11c-.25-.09-.29-.29-.35-.48a2.54,2.54,0,0,0,.66-.3.6.6,0,0,0,.18-.15c-.12-.24-.36-.21-.56-.25s-.3-.25-.43-.25a.33.33,0,0,0-.18,0c-.22.13.08.59.21.76-.46-.23-.62-.35-.75-.83a2.39,2.39,0,0,1-.78.08c-.16-.06-.45-.44-.59-.58s-.64.08-.47-.1l0,0a.35.35,0,0,1,.2,0,.32.32,0,0,0,.17,0,.23.23,0,0,0,.09-.15c-.25-.05-.41,0-.43-.25a.41.41,0,0,1,.19-.33l0,0a4.1,4.1,0,0,1,.93-.38.56.56,0,0,0,.07.64c0-.32-.08-.5.15-.69-.22-.17-.31-.17-.39-.13l-.07.06-.1.08a.55.55,0,0,1-.2.07c-.09-.22-.14-.5-.36-.62s-.41-.25-.52-.18a.08.08,0,0,0,0,.08.17.17,0,0,1-.08.15,1.49,1.49,0,0,1-.48.08l0,0c-.13.08-.18.38-.28.47a.56.56,0,0,1-.14.11l-.07,0,0,0c-.08,0-.06.09.08.4.07.14-.24.47-.3.58s-.12.25,0,.58" fill="#fff"/><path d="M155.08,117.54a3.22,3.22,0,0,1,.54-.26,8.49,8.49,0,0,1,1.61-.25l-.56,1.3a2.88,2.88,0,0,1-.76.83l.45.08a4.19,4.19,0,0,1-.21,1.23,2.34,2.34,0,0,0-.29,1.12c.06.39,0,1.08.38,1.33a2.3,2.3,0,0,0,1.37.33c-.07.56-.13,1.12-.2,1.67l1.08.07c.29,0,.55.41.78.62s.74.61.72.72c0,.41,0,.82-.07,1.23a5.61,5.61,0,0,0,.62,2c.09.24.66.6.88.78.41.37.39.36.38.86-.27.69-.54,1.38-.82,2.07a5.78,5.78,0,0,1-1.14,1.4l-.79.9c-.17.2-.13.37-.13.68a4.31,4.31,0,0,1,0,1.16,3.23,3.23,0,0,1-.55.73c-.27.34-.53.68-.79,1s-.19.26,0,.64c.24.7.49,1.39.77,2.09.35.87.7,1.74,1,2.61,0,0-.1.13-.24.21a1.67,1.67,0,0,1-.35.17l-1.39.24c-.22,0-.56.2-.81.09l-15.2-19.63c.63-.17,1.27-.3,2-.41a4.77,4.77,0,0,0-2.1-.29c.31-.54.62-1.08.92-1.62a.73.73,0,0,1,.25-.24,5.17,5.17,0,0,1,.94-.34l1-.37c.23-.14,0-.54,0-.75s.19-.19.32-.26l.1-.05,1-.8c.17-.13.34-.24.52-.35a19.12,19.12,0,0,1,2.67-1.23,11.48,11.48,0,0,1,3.25-.61l-.93,1.31a1,1,0,0,0,.77-.21l.06,0,.21-.13c.37-.22.53,1,.55,1.08.17-.28.39-1,.68-1.13l.88-.34c.22-.13.13-.42.13-.65S154.84,117.69,155.08,117.54Z" fill="#fff"/><path d="M141.38,125.55l15.2,19.63-1.54-.7a14.38,14.38,0,0,1-2.52-1.28l-1.47-1a4.46,4.46,0,0,1-.78-1.21l-.24-.42.39-.64.21-.38c-.15-.25-.3-.5-.46-.75l-.66.81a1.34,1.34,0,0,1-.26.27c-.12.07-.24,0-.59-.08s-.47-.42-.67-.85-.62-.4-1.05-.52-.41-.43-.55-.83-.23-.43-.65-.69a12.89,12.89,0,0,0-2.29-1.28c-.2-.07-.94-.46-1.1-.39l-1,.38a8.51,8.51,0,0,0-1.42.62,3,3,0,0,0-.35.25l-.86.72c-.19.12-.83,0-1,0h-1.26a4.22,4.22,0,0,1-1.11-.43c-.11,0-.52-.14-.57-.25s-.31-.45-.22-.55l1.11-1.34a4.48,4.48,0,0,1,.9-.89c.25-.18.33-.15.22-.48l-.3-.92c-.46.22-.8.5-1.37.33l1.44-2.89c.19-.39.39-.79.59-1.18s.57-.5.81-.69l1.59-1.36a6.83,6.83,0,0,1,.67-.61l.14-.07C140.65,125.76,141,125.65,141.38,125.55Z" fill="#fff"/><path d="M159.19,156.79a.42.42,0,0,1-.38.08,1.21,1.21,0,0,1-.38-.59,3.59,3.59,0,0,0-.1-1.49l.48-.29,0,0c.07.09.24,0,.33,0s.24.21.33.3a2.28,2.28,0,0,1,.48-.51.25.25,0,0,1,.2,0c.29.1.33.08.49.35.06.09.35,0,.49.13s.75.58.77.87,0,.22-.05.26a.62.62,0,0,1-.22.05c-.31.05-.27,0-.44-.29-.34.24-.22.55-.51.84a.32.32,0,0,1,0-.43,1.86,1.86,0,0,0-.93.29,3,3,0,0,0-.36.26Z" fill="#fff"/><path d="M141.43,146.1a.47.47,0,0,1,.54.11c-.06,0-.71.43-.69.15A.32.32,0,0,1,141.43,146.1Z" fill="#fff"/><path d="M157.19,158.48l.34.22.83-.42c0,.24,0,.41-.13.49a.45.45,0,0,1-.19.05C157.7,158.85,157.3,159,157.19,158.48Z" fill="#fff"/><path d="M135.6,143.44c-.23-.09-.12-.25-.39-.23s-.6-.39-.37-.61l.64-.1.11,0,.1-.07.11-.09a.31.31,0,0,1,.13,0,3,3,0,0,1,1.43.2c-.16.09-.38.16-.55.27a.77.77,0,0,0-.15.11,3.05,3.05,0,0,1-.52.59.22.22,0,0,1-.11,0A1.69,1.69,0,0,1,135.6,143.44Z" fill="#fff"/><path d="M140.57,146.36a.49.49,0,0,1,.45,0c.11.34.34.39.39.76a.24.24,0,0,1-.12.25,1.09,1.09,0,0,1-.68.06C140.12,147.32,140.2,146.58,140.57,146.36Z" fill="#fff"/><path d="M125.07,136.7l-.44.68-1,.08a1.62,1.62,0,0,1,.52-.76.66.66,0,0,1,.49-.08.64.64,0,0,1,.34-.78,3.44,3.44,0,0,1,.37-.19l.36-.2.08-.05-.55,0,.55-.36-.36-.24.05,0,.1-.07.13-.09a.6.6,0,0,1,.32-.11,3.84,3.84,0,0,0,1,.05l1.78-.52-1.92.06c0-.23,0-.65.21-.78l.5-.35c.11-.09,0-.25.1-.36l.09-.07a2.48,2.48,0,0,1,.74-.24l1.06-.14L128.5,132l1.14-.68c.26-.15.8,0,1.14,0l-.48-.28a13,13,0,0,1,1.22-1.08,10.74,10.74,0,0,1,1.64-.67l-.41.93a5.1,5.1,0,0,1,.93-.87,1.68,1.68,0,0,1,.31-.15,10.39,10.39,0,0,1,1.9-.53c-.22.46-.38,1.27-.79,1.57l-1.69,1.26.93-.35-1.06,1.31,1.92-1.92c.28.41-.51,1.31-.67,1.71s-.19.81-.41,1l-.75.75.58-.31a1.74,1.74,0,0,1-.21.83.28.28,0,0,1-.11.12,2.5,2.5,0,0,1-.56.16l.31.25c-.43.43-.91.8-1.38,1.18l.21-.12.15-.09c.31-.19.69-.37.83-.11l-.86.53c.25-.07.93-.44,1.15-.1l-.67.55h.61a.91.91,0,0,1-.22.79l-.06.05a1,1,0,0,1-.28.09,1,1,0,0,0-.29.07.07.07,0,0,0,0,0c0,.19.45.07.38.44,0,.13-.2.75,0,.85s.16.06.19,0,0-.09.09-.19a.21.21,0,0,1,.08-.11c.06,0,.14,0,.27,0s.26.22.35.31-.11.24-.15.3l0,0a.17.17,0,0,1-.13,0h-.1c0,.07,0,.24,0,.31l-.56.7c-.12-.27-.11-.39-.39-.42l-.08,0a.24.24,0,0,0-.07.09.29.29,0,0,1-.08.08.24.24,0,0,1-.21,0c.1.15.08.25,0,.3a.6.6,0,0,1-.54,0c.14.13.12.21.05.25a.92.92,0,0,1-.27.08l-.06,0c-.12.07-.06.28-.25.4a5.15,5.15,0,0,1-.6.29l-.14.11-.1.08c-.07,0-.16,0-.29-.09.06.15,0,.25-.06.29a.5.5,0,0,1-.58-.16c0,.19,0,.35-.06.4s-.12,0-.27,0c.07-.18-.18-.16-.18-.29s.2-.33.26-.44c.19-.31.39-.32.43-.73-.37.18-.4.15-.85-.09a1,1,0,0,1,.32-.31,3.16,3.16,0,0,1,.37-.18c.24-.1.53.25.83.17a1.21,1.21,0,0,0,.3-.13c.41-.25.36-.69.32-1.3,0,.3,0,.89-.32,1.07a.41.41,0,0,1-.26.05c-.71-.07-.54-.55-.75-1.09,0,.29,0,.72-.22.86l-.06,0c-.44.13-.82.33-.75-.33a1.13,1.13,0,0,1,.59-.84,2.18,2.18,0,0,1,1-.3,4.1,4.1,0,0,0-1.48-.49c-.52,0-1.08.38-1.26-.45l1.1-.61a6.82,6.82,0,0,1,1.6,0l-1.33-.27c.64-.61,1.26-1.23,1.84-1.9l-.47,0c0-.29.1-.59.14-.89a3.45,3.45,0,0,0-.55,1.41c0,.18-.38.39-.5.52l-.59.57c0-.21.09-.43.13-.64l-.42.53v-.24c-.06.07-.3.27-.23.37s.13.25,0,.31l-.16.09a7.59,7.59,0,0,1-1,.45,2,2,0,0,1,.52-1.12,1.71,1.71,0,0,0-.77,1,.51.51,0,0,1-.22.28,3.25,3.25,0,0,1-.88.23,2.38,2.38,0,0,1,.74-.72,2.13,2.13,0,0,0,.68-.92,5.46,5.46,0,0,1-.9.94c-.25.17-.41.39-.64.53a.78.78,0,0,1-.49.12Z" fill="#fff"/><path d="M128.5,142.22c.13-.08.35-.1.29.09l.19.12,0,0c-.15.09-.59.06-.53-.14A.2.2,0,0,1,128.5,142.22Z" fill="#fff"/><path d="M142.68,152c.46-.1.4.53.37.73-.23-.07-.33,0-.47-.25s-.09-.37,0-.45Z" fill="#fff"/><path d="M127.71,141.49a.52.52,0,0,1,.68.1,1.14,1.14,0,0,1-.23.28.28.28,0,0,1-.14,0c-.11,0-.53.07-.48-.17A.35.35,0,0,1,127.71,141.49Z" fill="#fff"/><path d="M140.56,142.65c0,.12-.31.56-.19.65a.22.22,0,0,0,.24,0,.45.45,0,0,0,.11-.48.12.12,0,0,1,.07-.14,4.68,4.68,0,0,1,1.44-.14c.13.31-.21.52-.35.71.17-.07.32-.22.45.07.1-.19.28-.38.14-.64.23,0,.56,0,.74.22l-.16.09a.75.75,0,0,0-.33.46,1.27,1.27,0,0,0,.48-.11l0,0a1.23,1.23,0,0,1,.16-.14c.09-.05.15,0,.38.17l-.62.21.35.35-.34.28c.61-.05,1.2-.16,1.8-.25a1.37,1.37,0,0,1,.74.07,1,1,0,0,0,.79-.11c0,.14,0,.27.05.4.12-.08.29-.25.45-.35a.55.55,0,0,1,.22-.09c.39,0,.42.21.64.55a2.33,2.33,0,0,0-.36.13.17.17,0,0,0-.1.15l.45,0c-.12.25-.16.45-.31.54a.57.57,0,0,1-.34.06,2.87,2.87,0,0,1,.61.76,2.83,2.83,0,0,1-1.35-.19c.1-.18.33-.35,0-.58-.07.09-.17.35-.28.42s-.55-.13-.74-.12a.51.51,0,0,0-.25,0,.2.2,0,0,0-.08.21c0,.3.27.13.47.37l-.4.16.41.31c.07-.1.09-.17.13-.2s.09,0,.2.08l.58.44c-.07-.15-.06-.22,0-.25a.88.88,0,0,1,.3,0c.27,0,.3,0,.54.26s.32,0,.53.11.39.4.53.55l-.44-.16c0,.31.42.18.51.48l-.19,0,.32.22c-.11.07-.57-.1-.78-.11l-1.16,0,.25.18-.61.07.62.32c.15.07.36-.1.52-.08l.73.06c.24,0,.25.14.38.36l-1.52.43c-.18.06-.33-.15-.44-.12l-.79.22,0-.16a1.18,1.18,0,0,1-.7.12l.2-.39c-.28,0-.48.16-.75,0s-.53-.31-.66-.23a.44.44,0,0,0-.15.23c-.11-.14-.24-.18-.35-.11l.11.26a1.82,1.82,0,0,0-.45.13.25.25,0,0,0-.12.19.55.55,0,0,1-.29.36l-.11.06-.14.09c-.15.09-.57-.05-.61-.23s.19-.48,0-.69a5.73,5.73,0,0,0,.81-.33.9.9,0,0,0,.22-.19c.06-.07.47-.43.44-.52s-.54-.18-.67-.19c.05-.43.09-.87.14-1.31,0-.12.09-.24,0-.31l-.82-.44c-.42-.22-.7.08-1.09-.11-.17-.09-.23-.12-.28-.09a.67.67,0,0,0-.13.17l-.33.49c-.33-.43-.22-.41.05-.73-.26,0-.88-.26-1.11-.11a.18.18,0,0,0-.09.15l-.32-.31a.07.07,0,0,0-.09,0l-.08.07-.07.06,0,0c-.2,0-.42-.22-.54-.15s-.06.08-.08.18c.26-.07.38,0,.64.18a1.69,1.69,0,0,1-.37.31,3.7,3.7,0,0,1-1.07.36l.68.15,0,.05c-.12.08-.31-.07-.46,0l-.05.24-.41.06a1.61,1.61,0,0,0-.54.23l-.22.14-.16.11-.16.09a1.29,1.29,0,0,1-.57.17c-.29-.06-.19-.26-.37-.15l-.1.07c-.1.08-.11.21-.22.28a.31.31,0,0,1-.17,0,2.14,2.14,0,0,1-1.09-.23l1.06-.51c-.61-.17-.86.06-1.36.3l-.57-.53a2.73,2.73,0,0,1-.29-.81,1.38,1.38,0,0,1,.09-1.26,1.74,1.74,0,0,1,.58-.63,3.91,3.91,0,0,1,.48-.24l.21.44a4.44,4.44,0,0,0,.69-.93.35.35,0,0,1,.11-.1c.11-.07.27-.12.37-.17s.34.18.55.26.27,0,.52.16.32.23.38.58c0,.17.11.21.17.17a.26.26,0,0,0,.1-.19c0-.2,0-.29.09-.33a.8.8,0,0,1,.34,0c.11-.06.11-.43.12-.53s.32-.3.44-.41l.05,0a1.79,1.79,0,0,1,1.1-.13c.27.07,1.09.44,1.26.33a1.34,1.34,0,0,1,.35-.33A.6.6,0,0,1,140.56,142.65Z" fill="#fff"/><path d="M123.09,140.45l.77-.41.24-.07-.21-.05.1-.21a.27.27,0,0,0-.14,0,.55.55,0,0,0-.14.13.63.63,0,0,1-.13.12.28.28,0,0,1-.13,0l.05-.11c-.23.07-.31.19-.58.21l.24-.33c-.41-.11.28-.59.41-.71-.21,0-.43.14-.62.18a.4.4,0,0,1,.21-.53l.16-.09.17-.09c.12-.07.2-.16.17-.3-.25,0-.41.2-.67.25a.34.34,0,0,1,.19-.33,2.07,2.07,0,0,1,.49-.17,2,2,0,0,1,1.25.2.79.79,0,0,0,.65,0,.5.5,0,0,0,.13-.12l0,0c.13-.08.2.2.3.25a.49.49,0,0,0,.49,0l0,0-.41-.21a.3.3,0,0,1,.14-.2.32.32,0,0,1,.51.32c.5-.22.54,0,.65.52a1.22,1.22,0,0,1,.3-.38c.1-.06.22-.06.36.1l-.06-.27a2.16,2.16,0,0,1,.66.19c-.13.17-.36.63-.56.75a.16.16,0,0,1-.11,0c.27.17.12.37.08.58-.17-.12-.36-.21-.44-.41-.3.36.49.59.33.7a1,1,0,0,1-.39.05c.29.12.31.27.4.52l-1-.22.69.4c-.29,0-.47-.08-.68,0l0,0a.38.38,0,0,1,.34.09c-.37.19-.84.6-1.38.35l.48-.4c-.31.1-.67.46-1,.31l.27-.2a1.7,1.7,0,0,1-.67.1,8.21,8.21,0,0,1,1.37-1.28c-.16.11-.3.24-.46.34a1.21,1.21,0,0,1-.47.18l.54-.44a.8.8,0,0,0-.5.18,1.1,1.1,0,0,1-.41.18c.1.09.11.13.08.15h-.15c-.05.11,0,.24-.13.29a.23.23,0,0,1-.11,0l-.07-.13-.09,0c-.09.05-.09.16-.12.28a.12.12,0,0,1,0,.08s-.09,0-.15,0a.15.15,0,0,0-.14,0l0,0c-.11.07-.29-.08-.17-.18s.32-.21.29-.45a1,1,0,0,1-.31.31A.67.67,0,0,1,123.09,140.45Z" fill="#fff"/><path d="M140.83,153.18c-.18-.13-.12-.14-.08-.32a.89.89,0,0,1,.37-.53l.27-.14a.82.82,0,0,1-.29,1.14Z" fill="#fff"/><path d="M126.33,142.66l-.26.17c-.27.16-.56.29-.76.12a1.29,1.29,0,0,1,.53-.6,2.57,2.57,0,0,1,.71-.28c0,.14,0,.28,0,.42Z" fill="#fff"/><path d="M141.58,151.17c-.05.16-.11.32-.17.47-.3.07-1,.4-1.3-.05-.16.25,0,.45-.15.69s0,.48-.1.71l0,0c-.09.06-.49-.39-.58-.39h0c-.11.07-.44.44-.51.49,0-.17.11-.6.07-.72s-.24-.2-.3-.3a4.84,4.84,0,0,1-.23-.45c-.17-.36-.37-.6-.2-.89a.19.19,0,0,1,.07-.08c.19-.12.51.21.28.43l.23.13c0-.14,0-.22,0-.24s.15,0,.29,0,.33-.1.5-.09,1.32-.05,1.26.44l.21-.16C141.14,151.14,141.26,151.14,141.58,151.17Z" fill="#fff"/><path d="M129.28,144.7c-.39-.24-.5-.25-.64-.65,0-.35-.51-.43-.75-.5a.44.44,0,0,0-.39,0,3.55,3.55,0,0,0-.29.27,2.62,2.62,0,0,1-.29.24.71.71,0,0,1-.58,0c-.49-.12-.75-.23-.44-.6a.62.62,0,0,1,.15-.13,4.26,4.26,0,0,1,.75-.28c.26-.11.56,0,.86-.06l.1,0a1,1,0,0,0,.19-.17,1,1,0,0,1,.2-.19.44.44,0,0,1,.24-.06c.21,0,.2.16.43.1l.5-.12c.07.14-.09.24-.21.31s-.19.12-.11.17h1.32l.2-.28.06,0a4.55,4.55,0,0,1,.89-.26l-.23,0a5.4,5.4,0,0,0,.53-.62.6.6,0,0,1,.17-.15l.13-.07.13-.07a.58.58,0,0,0,.17-.15,1,1,0,0,1,.28-.26,2.22,2.22,0,0,1,1.5-.15l-.13.44a.79.79,0,0,1,.48-.08c-.16.21-.26.24-.13.54.06.13-.41.44-.5.52l-.08.06a1.42,1.42,0,0,1-.47.13c-.24,0-.34-.34-.6-.18l.31.3a2.74,2.74,0,0,1-.36.35.27.27,0,0,1-.35,0,.25.25,0,0,1-.09.34.55.55,0,0,1-.46,0l.17.19-.8.44c-.26.15-.26-.3-.56-.25.06.1.09.22.17.31l-.24-.09c.1.18.06.26,0,.32a2.09,2.09,0,0,1-.22.1c-.23.12-.24.07-.52-.09a.79.79,0,0,1-.23.4A.2.2,0,0,1,129.28,144.7Z" fill="#fff"/><path d="M124.68,142.61c-.38-.09-.55.31-1,0l.11-.1c-.39-.1-.33-.23-.16-.34a1.55,1.55,0,0,1,.5-.18c.17,0,.42.05.55,0s.37-.15.57-.19c0,.28.2.24.23.41s-.22.34-.32.46a1.59,1.59,0,0,1-.29.3h0s-.4-.07-.54,0C124.46,142.79,124.61,142.74,124.68,142.61Z" fill="#fff"/><path d="M122.49,141.42a2.17,2.17,0,0,1-.6.12c-.28-.16-.19-.37,0-.48a.38.38,0,0,1,.41,0C122.59,141.24,122.6,141.36,122.49,141.42Z" fill="#fff"/><path d="M128.46,144.8c.45.43.11.58-.18.82-.21,0-.93.14-1.1,0-.42-.3.21-.88.31-1l.06-.06C127.78,144.42,128.25,144.6,128.46,144.8Z" fill="#fff"/><path d="M123.2,144.08c-.13.08-.17.22-.28.32s-.43,0-.24-.16a1.29,1.29,0,0,1,.2-.17.44.44,0,0,1,.42,0Z" fill="#fff"/><path d="M120.7,144l-.08-.3-.36.24c-.18-.49.08-.52.39-.79l.08-.06c.26-.16.56,0,.86.17a1.13,1.13,0,0,1,.34-.42c.14-.08.29-.08.43.17a1.77,1.77,0,0,1,.2-.18.47.47,0,0,1,.34,0c.18,0,.15,0,.22.21s.29.14.41.17c.55.17.37.47.12.62a.44.44,0,0,1-.36.08c-.27-.15-.37-.25-.59-.15s-.46.29-.74.2a.11.11,0,0,0-.08,0,1,1,0,0,0-.21.24,1,1,0,0,1-.25.27c-.13.08-.29.07-.49-.15a.4.4,0,0,1,.18-.17l.14-.08.14-.08c.13-.08.2-.17,0-.34l-.39.13,0-.18a.22.22,0,0,0-.17,0c-.06,0-.07.11-.08.18a.27.27,0,0,1-.11.2Z" fill="#fff"/><path d="M124.9,144.8a.4.4,0,0,0,.16-.19.14.14,0,0,1,0-.05,1.42,1.42,0,0,1,.38-.06l.46.22c.09.1.13.28.23.4s.26.13.36.32l-.22,0a.33.33,0,0,1,.09.32l.32,0a.41.41,0,0,1-.22.31c-.13.08-.3.14-.43.2a.12.12,0,0,0,0,.12s0,.08,0,.1h0c-.2,0-.33.15-.5,0l.19-.16a.85.85,0,0,0-.4.12.27.27,0,0,1,.12-.28l.06,0-.11,0,0,0a.22.22,0,0,0,.08-.27c-.25.21-.52.41-.75.64l-.17.12c-.21.13-.49.21-.36-.18l-.36.22a.36.36,0,0,1,.17-.3l0,0,.21-.09.18-.09c.08,0,.13-.11.09-.2l-.06.06c-.14.09-.28-.08-.17-.25l-.26.14c-.13-.15-.13-.23,0-.28.24-.15,1.15,0,1.28,0l-.57-.21.2-.12c-.16-.14-.77.19-.53-.17a.58.58,0,0,1,.17-.16l.21-.1Z" fill="#fff"/><path d="M122.83,146a.48.48,0,0,1,.22-.07h.42a.4.4,0,0,1-.22.31c-.1.06-.21.1-.3.15-.12-.12-.15-.09-.32-.19A.58.58,0,0,1,122.83,146Z" fill="#fff"/><path d="M122.16,145.67c-.15,0-.42.05-.63,0l-.38-.32a.25.25,0,0,1,.08-.08c.12-.07.3,0,.46,0a2.1,2.1,0,0,1,.43.1c.16,0,.22.22.14.27A.12.12,0,0,1,122.16,145.67Z" fill="#fff"/><path d="M130.21,151.89c-.06-.27.27-.2.2-.47l.08-.08c-.31,0-.23-.28-.21-.47a.16.16,0,0,1,.07-.13c.1-.06.3,0,.48,0a11.25,11.25,0,0,1,1.3.18c-.08.23-.11.57-.32.7l-.05,0c-.25.08-.66.31-1,.09l0,.12a.26.26,0,0,1-.32-.07c0,.06,0,.06,0,.17Z" fill="#fff"/><path d="M165.41,176.76a.55.55,0,0,1-.38.07c-.1-.08-.06-.14,0-.21a2.68,2.68,0,0,1,.3-.14,2.77,2.77,0,0,0,.31-.15.27.27,0,0,0,.14-.15c-.42-.18-.47-.31-.89-.27a.64.64,0,0,1,.23-.26c.11-.07.25-.1.43-.21l.21-.24a.11.11,0,0,1,.05-.06,1.18,1.18,0,0,1,.39-.08l.08,0,0,0,0,0s.07,0,.16,0c.27.15.28.15.52.06s.39,0,.41.1,0,.17,0,.18-.12,0-.23,0-.35.33-.57.47h0s0,0-.07,0a.14.14,0,0,0-.09,0,.13.13,0,0,0-.05.08c0,.09.2.38.14.46l0,0c-.13.08-.31-.2-.39-.19l-.11,0-.11.08-.06,0-.07,0-.15.08-.15.1Z" fill="#fff"/><path d="M128.89,147.82l.35.23a1.16,1.16,0,0,0-.16.23c.58-.11.36.68,0,.88a.29.29,0,0,1-.12,0,.31.31,0,0,1,0,.52l-.06,0c-.23.08-.52-.09-.78-.18a7,7,0,0,0-1.66-.14c-.31-.05-.2-.33-.09-.47l0,0c.13-.08.52.13.66.07l.08,0c.22-.14,0-.4-.14-.6s-.61,0-.73,0,0-.46.06-.52.21-.19.31-.26a.53.53,0,0,1,.27-.07.58.58,0,0,0,.27-.07,1,1,0,0,0,.25-.3.58.58,0,0,1,.12-.12A1.09,1.09,0,0,1,128,147c0,.12-.09.23-.13.35l.28,0c-.08.25-.18.49-.26.73l.15-.08.09-.06c.18-.11.29-.12.62.08Z" fill="#fff"/><path d="M123.88,147.66c-.14.09-.28.09-.3-.21a.74.74,0,0,1,.19-.22c.1-.06.22,0,.44.1A1.16,1.16,0,0,1,123.88,147.66Z" fill="#fff"/><path d="M163.59,177.59a2.17,2.17,0,0,1,.64-.15l.23.1-.08,0a.41.41,0,0,0-.13.16s-.05.1-.09.12h0a1.85,1.85,0,0,1-.68,0A.29.29,0,0,1,163.59,177.59Z" fill="#fff"/><path d="M119.39,145.93c0,.27-.18.39-.34.55.15.08.37-.18.42-.05s.19.16.06.31l-.55.62,0,0c-.14.08-.45-.06-.61,0-.46-.44-.22-.47.11-.77a4.48,4.48,0,0,1,.64-.63A.64.64,0,0,1,119.39,145.93Z" fill="#fff"/><path d="M117.94,147.22c-.06.09-.11.18-.17.27l-.57,0a.86.86,0,0,1,.21-.26C117.51,147.13,117.65,147.16,117.94,147.22Z" fill="#fff"/><path d="M118.43,148.32l.17-.09.22,0a.3.3,0,0,1-.15.19,2.77,2.77,0,0,1-.43.16A.34.34,0,0,1,118.43,148.32Z" fill="#fff"/><path d="M164,176.33l-.13.08-.3.2-.26.18a1.39,1.39,0,0,1-.29.14l0-.44c-.14-.19-.34,0-.43,0-.36,0-.59-.26-.85-.14s-.64.07-.88.21-.21,0-.29.06l-.05.05-.06.05a.41.41,0,0,1-.34,0l.07,0a.32.32,0,0,0,.11-.15.43.43,0,0,0-.33,0,.92.92,0,0,0-.29.54,1,1,0,0,1-.29.54.34.34,0,0,1-.17,0c.11-.28,0-.6.18-.83a2.9,2.9,0,0,1,.66-.61l.19-.11a4.68,4.68,0,0,1,2.17-.27l0-.08a1.14,1.14,0,0,0,.91,0l0,0c.06,0,.28.12.41.06a1.29,1.29,0,0,1,.6,0Z" fill="#fff"/><path d="M120.48,147.92a2.27,2.27,0,0,0,.06-.77.46.46,0,0,1,.12-.13c.23-.14.44.31.73.35s.37.23.51.2a.53.53,0,0,1,.57.13c0-.32-.45-.24-.09-.55l.08-.06c.26-.16.46.07.6.35s.23.55,0,.67l-.45.28c-.14.09,0,.26-.11.32l0,0a.47.47,0,0,1-.22.05.48.48,0,0,0-.22,0l-.06.06-.66.94a2.1,2.1,0,0,1-.54.63,1.34,1.34,0,0,1-.78.14c.31-.42.9-.87.94-1.4a.73.73,0,0,1-.29.39.3.3,0,0,1-.33,0c.1.15,0,.26-.16.34l-.11.06-.13.08c-.1-.2-.14-.41-.39-.35a.72.72,0,0,1,0,.78.28.28,0,0,0-.3-.09s0,.1.07.19a3,3,0,0,1-.39.1l-.06-.15a1,1,0,0,1-.21.18,1.37,1.37,0,0,1-.45.15c-.1-.48.66-.67.74-1.1a3.33,3.33,0,0,1-.58.57c-.11.07-.2.09-.26,0-.2-.22.74-.72.79-.85-.13.09-.28.24-.45.34a.65.65,0,0,1-.34.11l-.13-.16a1,1,0,0,1,.36-.36c.12-.08.26-.14.42-.22-.11,0-.55.22-.63.1s.21-.36.36-.45l.06,0c.35-.05.39.11.59,0l.14-.11,0,0c.19-.12.59,0,.84.06l-.06.14.16-.12c.1-.06.16,0,.37.14s.24,0,.39-.1l.24-.16c.11-.05.24-.09.33-.14s.13-.13,0-.27-.56,0-.69,0l.21-.32Z" fill="#fff"/><path d="M117.61,150c.19.15.11.48.11.66a.37.37,0,0,1-.19.27.23.23,0,0,1-.25,0C117.05,150.78,117.52,150.1,117.61,150Z" fill="#fff"/><path d="M128.57,152.25h-.23l-.19.08c.23.06.3.23.44.4,0-.21,0-.41.22-.51l.13-.05c0,.3.21.12.34.28s-.18.43-.26.49l-.08.06c-.31.19-.73.2-1,.4l0-.17-.71.24-.1-.21-.07,0c-.11.07,0,.21-.07.37a.66.66,0,0,1-.25.42c-.26.23-.19.51-.46.71l-1.19.89,0,0c-.3.19-.54,0-.8-.37-.63.33-1.25.91-2.09.25a5.71,5.71,0,0,1,.91-.95l.13-.07a7,7,0,0,0,.81-.35c.11-.07.55-.47.17-.37a5.55,5.55,0,0,0-1.47.56l-.93.59h0c-.22.14-.37.06-.69,0l.59-1-.87.58-.07-.21-.43.26c-.28-.28-.12-.59-.08-.86l-.27,0a3.91,3.91,0,0,1,.71-1.49c.1-.16.15-.28.25-.34a.45.45,0,0,1,.24-.05c.44,0,.41.37.34.66l.35-.26c.11-.08-.07-.37,0-.46l0,0a3.37,3.37,0,0,1,1-.06c0,.11,0,.24,0,.36l.08,0c.16-.1.17-.12.13-.38,0,0,0-.05,0-.08a2,2,0,0,1,.43-.12l-.73-.2.18-.14a.86.86,0,0,1,.92-.09l.79.58c.1.07.15.08.19.05s.08-.14.16-.24l-.87-.62-.39-.28c-.12-.09,0-.26-.2-.36a2,2,0,0,0,.53,0,0,0,0,0,0,0,0,.13.13,0,0,1,0-.13c.1-.06.32,0,.48,0,.55,0,1.16.57,1.67.9.2.14.22.44.37.54s.71,0,.88,0a2.18,2.18,0,0,0,1.09-.14l.1-.07c.12.14.41.46.31.52s-.12,0-.27-.06l0,.21a.62.62,0,0,0-.37,0C128.45,151.94,128.45,152,128.57,152.25Z" fill="#fff"/><path d="M116.23,151.2l-.5.21c-.54-.18-.38-.44-.08-.67s.17-.73.22-1,.08-.54.34-.77a2.15,2.15,0,0,1,.25-.22l.11,0a1.05,1.05,0,0,0,.32-.07.2.2,0,0,0,.09-.16h-.2a.57.57,0,0,1,.18-.19,1.25,1.25,0,0,1,.65-.08c-.14.19-.37.65.14.46l-.18.18c.48,0,.29.66.15.83l-.08.06c-.25.15-.7,0-.56-.37a.24.24,0,0,0-.16,0c-.06,0-.09.09,0,.16.2.26,0,.21-.1.38a.23.23,0,0,1,.29.21c0,.07,0,.11-.05.12a.23.23,0,0,1-.18,0c-.07,0-.13,0-.17,0h0c-.1.16.3.22.29.37s-.16.27-.24.38c-.11-.19-.31-.27-.41-.21a.12.12,0,0,0-.05.09c0,.1.21.2,0,.3Z" fill="#fff"/><path d="M117.45,155.88l-.18.17c-.22-.21-.16-.49-.16-.71s-.4-.25-.05-.52c-.36-.06-.29-.61-.26-.84s-.63-.36-.81-.45l1.11-1,.05,0a1.17,1.17,0,0,1,.57-.11,1.22,1.22,0,0,0,.57-.12.44.44,0,0,0,.11-.1l.1.19a.52.52,0,0,1,.25-.45,1.82,1.82,0,0,1,.67-.18,3.32,3.32,0,0,1,.68,0c.32,0,.41.11.36.38a4.58,4.58,0,0,1-.73,1.24c-.1.16-.19.21-.09.42a.36.36,0,0,1-.08.47.3.3,0,0,1-.17,0l.35.67a2.29,2.29,0,0,1-.25.43l-.15,0-.09.23c-.09.22-.14.33-.21.38s-.23,0-.56-.1A2.36,2.36,0,0,0,117.45,155.88Z" fill="#fff"/><path d="M190.17,178.4c.26.24.53.46.8.7.58.51.59.49.63,1.14s.14,1.59.21,2.38a1.9,1.9,0,0,0,.22,1.06l1.76,2.61a4.46,4.46,0,0,1,.36,2.08c0,.26.17.64,0,.78l-.47.28a.8.8,0,0,0-.34.31c-.22.68-.44,1.36-.67,2-.06.2.58,1,.68,1.18s.38.46.39.67c0,.86,0,1.71.06,2.56s0,1.56.07,2.34a9.44,9.44,0,0,1-1.93.43c.23.52,1,.13,1.36.48a4.19,4.19,0,0,1,.72.66,2.48,2.48,0,0,1,.07.78c.06.56-.3.77-.63,1.15a1.91,1.91,0,0,1-.45.41,2.76,2.76,0,0,1-.54.24c.29.22.44.3.55.63s.35.42.31.54a.76.76,0,0,1-.31.45,1.8,1.8,0,0,1-.81.16,4.41,4.41,0,0,0,.57.76c.16.15.62.26.68.45.1.38.19.75.29,1.14s0,.37-.2.63-.07.48,0,.8.58.32.77.4.51-.28.65,0a1.54,1.54,0,0,1,.17.77,2.12,2.12,0,0,0,0,.88c.17.43.09.5-.06.86s.91,1.1,1.23,1.41c.12.11.35.41.51.43l1.12.2a1.24,1.24,0,0,0,1-.19l.35-.22c-.28.49-.56,1-.85,1.47a.72.72,0,0,1-.23.28,1.44,1.44,0,0,1-.64.09l-2.2.17c-.38,0-.68-.27-1-.51a7.06,7.06,0,0,1-2.46-1.86l-2.45-3.91c-.78-1.25-1.69-2.52-2.37-3.81q-1.32-2.44-2.62-4.89l-1.59-3a12.07,12.07,0,0,0-.71-1.32,9.83,9.83,0,0,0-.91-1c-.19-.19-.56-.72-.81-.84a3.6,3.6,0,0,0-1-.08l-1.52-.12a3,3,0,0,1-1.31-.5l-3-1.64L171,190.1a1.33,1.33,0,0,1-.5-.59c-.2-.38-.34-.83-.47-1.12a3.46,3.46,0,0,1-.45-.95c0-.38,0-.74,0-1.12a2.44,2.44,0,0,0-.65-2.11c-.16-.17-.34-.2-.32-.41,0,0-.26-.25-.31-.36-.14-.27-.82-.19-.95-.45s-.15-.3-.48-.29a.43.43,0,0,0-.21,0s-.06.08-.11.19a1.69,1.69,0,0,0-.11.49l.41.24a1,1,0,0,1-.19.27c-.07,0-.16,0-.42-.17-.15.19-.55.11-.7.17a1,1,0,0,1-.67.12,4.18,4.18,0,0,1-1.21-.14c-.27-.12-.44-.46-.74-.55a3.48,3.48,0,0,0-2-.33c-.51.13-1.23.53-1.82.38l-1.57-.37a.32.32,0,0,0-.25,0c-.16.1-.25.32-.36.47a.88.88,0,0,1-.23.2,4.46,4.46,0,0,1-1.63.3l-1.57.22a1.93,1.93,0,0,1-.61.09l-1.42-.36c-.43-.1-.41-.35-.58-.77-.12-.26-.88-.47-1.13-.58a2.87,2.87,0,0,0-.81-.27l-1.46-.3c-.11,0-.17-.26-.22-.36s-.32-.15-.41-.18a5.68,5.68,0,0,0-1.15-.34,1.55,1.55,0,0,1-.94-.25c-.16-.13-.87-.82-1-.8l-1.06.1a6.2,6.2,0,0,0,1.22.94,5.63,5.63,0,0,1,1.5.64,1.44,1.44,0,0,0,.72.28,1.71,1.71,0,0,1,.65.37,2.69,2.69,0,0,1,.62.49c.12.15.18.16.22.14a.75.75,0,0,1,.8.16c.09.14.07.26,0,.3a.22.22,0,0,1-.22,0,3.88,3.88,0,0,0-1.43-.3c-.14,0-.43-.44-.52-.55s-.49-.14-.68-.17-.26.08-.48,0l-.74-.14c.16-.12.53-.41,0-.62a1.93,1.93,0,0,0-1-.25c-.27,0-.59-.29-.83-.46l-1.26-.85a2.32,2.32,0,0,0-1.68-.24c-.37.1-.45.19-.82,0l-1.22-.74a16.84,16.84,0,0,1-1.82-.85,7.68,7.68,0,0,1-1.62-1.81l-1.35-1.91a5.75,5.75,0,0,0-1.48-1.37,8.94,8.94,0,0,1,1.2-.28c-.38-.51-.41-.59-1-.75a5.88,5.88,0,0,0-1.21-.2l27-16.58a.91.91,0,0,1-.36.37l-.25.13a7.4,7.4,0,0,0-.84.45l-.5.33-.21.14c-.39.24-.58.42-.35.86.09.15-.27.44-.31.58a3.69,3.69,0,0,0-.06.82,6,6,0,0,1,0,1.34c.32-.6.15-1.36.46-2a3,3,0,0,1,.82-1.11.64.64,0,0,1,.74,0l-.18,0c.42,0,.16.39.13.6-.39.32,0,.43,0,.41a1,1,0,0,1,.2-.18.37.37,0,0,1,.22.47l.19-.13a.73.73,0,0,0,.87.34.83.83,0,0,0,.69-.06.5.5,0,0,0,.23-.3l.15.14.14-.17c-.38-.14-.29-.73-.32-1,.31-.06.35.26.45.48.23-.2.52-.08.45,0a1.32,1.32,0,0,1-.37.5l.15.15c-.17.26-.33.52-.51.78a1.08,1.08,0,0,0-.17.32,1.46,1.46,0,0,0-.3,1,.49.49,0,0,1-.38.12c-.58-.24-.21-1-.12-1.28.44-.08.42-.25.45-.4-.1.05-.22.1-.33.16a.36.36,0,0,0-.17.21.72.72,0,0,1-.08-.37c-.25.14-.29.51-.36.7-.33.36-.4.38-.45.41.46.36-.35.63-.29.88a1.56,1.56,0,0,1-.3.55c-.1.14,0,.25,0,.44s.28,1.21.73.94l.15-.05a.28.28,0,0,1-.13.17,2,2,0,0,1-.41.13c-.08,0,.12.28,0,.36a1.49,1.49,0,0,0-.69.86c.22-.18.32-.43.53-.61h.18a1,1,0,0,1-.31.48c-.3.18-.44.28-.41.44.4-.18.45.88.41,1.09,0-.21-.39-.16-.6-.31.19.22.7.36.77.63a5.7,5.7,0,0,0,.19.89,1,1,0,0,1-.26-.5c-.13,0-.22-.19-.35-.11a1,1,0,0,1-.31-.47s-.08-.3-.13-.27c-.16.48.06.58.46.94a.9.9,0,0,0-.43,0c.17.07.39,0,.55.07s.22.41.3.48.33-.08.48.23,0,.3-.15.47l.16-.1c.13-.08.27-.13.38.06s-.26.31-.33.39l.21,0c0,.06,0,.14-.13.2.34,0,.3.12.24.22l-.26.09c-.06.14,0,.47.05.63s-.21.2-.21.39a1.18,1.18,0,0,1,0,.53,1.64,1.64,0,0,0,0,1.32,1.8,1.8,0,0,0,.74.84,11,11,0,0,1,1.36.94c.23.19.74.73.71,1s0,.27-.08.32-.1,0-.2,0l-.54-.14a6.31,6.31,0,0,0-.56-.37c-.21-.13-.38-.18-.49-.42-.3-.08-.37-.6-.76-.63s-.62-.22-.82-.09-.21.3-.31.36c-.32,0-.6,0-.76,0a.84.84,0,0,0-.26.2.91.91,0,0,1-.18.16c-.1.06-.21.06-.37-.09.13.23-.13.39-.39.55s-.39.25-.41.35c.17-.07.8-.35.54.13l.41,0c.11.1.08.2,0,.24-.1-.18-.39-.1-.55-.1.11.1.09.17.16.26-.1-.06-.15-.06-.19,0-.46.12-.62.05-.76.14a1,1,0,0,1-.59.21c-.31.17-.42.54-.55.73-.22.36-.54,1.48-.15,2,.12.17.44.2.57.35a2.56,2.56,0,0,1,.19.44,4.42,4.42,0,0,0,.48,1,4.69,4.69,0,0,0,1.93,1.58c.5.22.78.42,1.24.3.09,0,.33.1.4.06l.34-.48a1.27,1.27,0,0,1,.33-.35.33.33,0,0,1,.19,0l.28-.23-.14-.19a.7.7,0,0,0,0-.51c-.15-.36-.45-.71-.24-1a2.72,2.72,0,0,1,.54-.55c.46-.27.69-.36.8,0s.22.78.12.87c.08,0,.09.07.21,0l0,.22a2.55,2.55,0,0,1,.38.59.57.57,0,0,1-.35-.29l0,.3c.24-.14.35.51.56.64s.17.56.15.72a1.46,1.46,0,0,0,.54-.23,5.68,5.68,0,0,1,.54-.31.39.39,0,0,0,.15-.15.54.54,0,0,1,.14-.16,2.32,2.32,0,0,1,.6-.25,1,1,0,0,1,1,.47l.46.81c.09.15.07.35.16.49.39.65,1.73,1.2,2.26.87a.45.45,0,0,0,.15-.14c.17-.28.26-.5.48-.63a1,1,0,0,1,.28-.11,2.22,2.22,0,0,1,1.25.16c-.39-.46-.33-1.44-.41-1.94,0-.17.33-.49.41-.59l.63-.89a.46.46,0,0,1,.14-.13,5.27,5.27,0,0,1,1.07-.31l2.54-.78a2.51,2.51,0,0,1,1.37-.26l3,.66c.63.14,1.4-.32,1.93-.48s1.39.38,1.94.58l1.66.61c.14.05.51.26.64.24l1.47,1.72,4-2.48c.39.06.78.13,1.11.16C189.58,178.66,190.11,178.35,190.17,178.4Zm-38.72-12.55a4.56,4.56,0,0,0,.09.79l.35-.09v.13l.1-.05c.32-.19.34-.47.55-.77a3.09,3.09,0,0,0,.43-1c-.08-.1-.1-.16-.23-.18.14.19-.29.67-.48.79h0l-.1.06c-.17.1-.19.16-.24.42s0,.3-.14.37a.31.31,0,0,1-.14,0,.33.33,0,0,1,.06-.4c-.15-.07-.1,0-.25-.1m.92-1.5c0,.37.07.45.16.39a1.09,1.09,0,0,0,.2-.22,1.28,1.28,0,0,1,.26-.25.22.22,0,0,1,.16,0,.36.36,0,0,0,.27,0c.3-.18.35-.78,0-.73,0-.13.06-.28.08-.42-.12.17-.24.64-.4.74l-.05,0a.51.51,0,0,0-.22.08,2.78,2.78,0,0,0-.47.48" fill="#fff"/><path d="M114.37,174.13a.49.49,0,0,1,0-.44l.36-.05v.14l-.11,0a.4.4,0,0,1-.14.35A.2.2,0,0,1,114.37,174.13Z" fill="#fff"/><path d="M158.2,153.34a1.48,1.48,0,0,1-.25.62c-.14.16-.34.22-.48.41a1,1,0,0,0-.14.63,1.18,1.18,0,0,1-.11.47l-27,16.58a3.77,3.77,0,0,0-1,.16,1.3,1.3,0,0,1-1.22-.27c-.64-.41-1.64-.22-2.06-.87s-.39-.52-1-.54c0,0,0,.14,0,.27s0,.26-.09.31a.19.19,0,0,1-.18,0c-.3-.14-.95-.56-1.24-.53a1.54,1.54,0,0,1-1-.19,9.75,9.75,0,0,0-1.32-.58,6.93,6.93,0,0,0-1.08-.08,8.21,8.21,0,0,0-2.23.17.43.43,0,0,0-.15.06,1.26,1.26,0,0,0-.23.21,1.16,1.16,0,0,1-.23.2,3.46,3.46,0,0,1-1.25,0,1.19,1.19,0,0,0-.76.11l-.15.11c-.28.22-.37.4.06.73s-.61,1.4-.81,1.67a.24.24,0,0,1-.08-.39c-.26.07-.6-.68-.53-.83a1.23,1.23,0,0,1,.55-.6l.12-.07L114,171c0-.12.08-.25.12-.38a2.37,2.37,0,0,0-.77,1.37,3.53,3.53,0,0,0,.08,1.67l.45-.14a5.76,5.76,0,0,1-.3,2c-.1.35-.73,1-.46,1.45s-.62,1.21-.85,1.47a2,2,0,0,1-.32.29c-.14.11,0,.15,0,.3a.82.82,0,0,1-.33.48.93.93,0,0,1-.23.1,3.68,3.68,0,0,1,.39-1c.08-.2.18-.88.44-1a.24.24,0,0,1,.25,0c-.05-.28,0-1,.25-1.13a.25.25,0,0,1,.16,0c-.3-.22,0-.67-.15-1a.82.82,0,0,1-.17-.6c0-.16.08-.28-.16-.39-.13.29-.23.66-.48.81a.57.57,0,0,1-.36.07c-.17,0-.54-.13-.68,0l-.37.6-1.05-1a2.56,2.56,0,0,1-.31.71,3.65,3.65,0,0,1-1-.15,5.4,5.4,0,0,1-.9-.8c-.21-.19-.18-.45-.22-.7-.07-.41-.15-.53.08-.67l.14-.07c.31-.19.18-.45.35-.72a.51.51,0,0,1,.16-.15c.26-.15.33-.23.25-.46s-.3-.29-.64-.39c0-.1.09-.19.13-.3-.13-.1-.22-.1-.29-.06s-.16.34-.23.5a.35.35,0,0,1-.13.18.51.51,0,0,1-.16.05.46.46,0,0,0-.19.07,5.53,5.53,0,0,1-.55.42,1,1,0,0,1-1.12,0l.11-.21a1.7,1.7,0,0,1-1,.08,2,2,0,0,1,.71-1l-.17-.07a1.5,1.5,0,0,1,.62-.75c.3.43.56.19.92.08l.16-.07c.16-.1.18-.26.26-.51l-.44.05.08-.13c-.19,0-.32-.12-.26-.3a3.64,3.64,0,0,1-.92.33c-.27.05-.56-.32-.85-.29s-1,.22-1.15.1a1.8,1.8,0,0,1-.23-.55l.17-.16.18-.11c.29-.17.44-.31.43-.52a4.48,4.48,0,0,1,0-1.08,2.73,2.73,0,0,1,.85-1.5c.27-.24.52-.4.61-.78s.08-.4.18-.46a1.11,1.11,0,0,1,.47-.06c.49,0,1.25-.87,1.75-.53s1.35-.39,1.72-.55c.56-.24,1.12-.49,1.69-.71l2.55-1a8.09,8.09,0,0,1,1.89-.25c.11-.07.11-1,.13-1.14a.39.39,0,0,1,.36-.08.63.63,0,0,0,.33,0c.18-.27.61-1.36,1-1.59a.22.22,0,0,1,.21,0c-.25.51-.49,1-.73,1.52a.25.25,0,0,0,.16,0,1.83,1.83,0,0,0,.46-.64,1.78,1.78,0,0,1,.42-.62.17.17,0,0,1,.22,0c0-.24,0-.48,0-.72s-.28-.07-.22-.35c.64.2,1.26.37,1.91.52a1.49,1.49,0,0,1-.17-1c.3.08.08.34.4.34.12,0,.14.27.16.38.11-.12.38-.3.42-.47s-.23-.18-.16-.25l.22-.18a2.91,2.91,0,0,1,1.22-.21,15.3,15.3,0,0,0,2.14-.57l-.14-.11a2,2,0,0,1,1.2-.12c.37,0-.15.73-.18.79a2.75,2.75,0,0,0,.85-.22l1.22-.91.26-.18a.55.55,0,0,1,.52-.08l1.27.55-.4-.34c-.07-.07-.06-.19-.12-.26-.29-.29-.36-.13-.44-.53s.79-.82.35-1a2.68,2.68,0,0,1-.88,1c-.24-.44-.05-.49.19-.82a1.29,1.29,0,0,1,.29-.33.86.86,0,0,1,.45-.08c.14,0,.36.19.49.26s.25,0,.41,0a6.89,6.89,0,0,1,1-.23,5.17,5.17,0,0,0,1.19-.53c.2-.12.33-.24.3-.31-.17-.42-.29-.6.08-.83a3.89,3.89,0,0,1,.89-.26,2.31,2.31,0,0,0,.31.68c.12.09.57,0,.72,0-.44-.33-.85-.6-.44-1,.17-.16.14-.41.16-.65s-.15-.26-.29-.39l-.22.41c-.36-.38-.13-.61.11-.8-.12-.13-.2-.12-.28-.07l-.2.16c-.31.08-.88.28-1.07.16a3,3,0,0,1-.85-.87c-.2-.25-.2-.4-.06-.49a.69.69,0,0,1,.25-.08.21.21,0,0,0-.34-.12c.08-.3.13-.3-.14-.63a1.93,1.93,0,0,0-.67-.6c-.25-.13-.4-.46-.56-.69s0-.15.06-.2.21-.09.28-.13c-.56-.17-.39-.37-.11-.54s.36-.18.47-.26a3.9,3.9,0,0,1,1.31-.54,4.39,4.39,0,0,1,.12,1.44.69.69,0,0,1-.3.29c-.24.15-.55.27-.7.36.85-.35.38.72.63.94a1,1,0,0,1,1.21.27,3.88,3.88,0,0,0,1.17.39c-.09.25-.18.5-.26.76a1.39,1.39,0,0,0,.46-.09.26.26,0,0,0,.11-.15.24.24,0,0,1,.1-.14,1.28,1.28,0,0,1,.51-.06c0,.12-.07.24-.12.37.31.05.41,0,.55.29s.14.38.48.39a1.2,1.2,0,0,0-.19-.68c-.06-.09-.24-.43-.11-.51s.68-.08.81,0,.54.37.35.62l-.15-.16c-.23.51,1,.86,1.33.67.08-.05.1-.14,0-.27s-.22-.27-.19-.44.1-.32,0-.41c-.35-.45-.32-.43-.1-.82-.33-.15-.56-.19-.71-.5s-.08-.27,0-.33a1.84,1.84,0,0,1,.29-.11c.19-.07.59-.35.81-.28a1.1,1.1,0,0,0,.84,0c.06.31.37.34.37.59s-.1.18-.22.25a.81.81,0,0,0,.65.55c.34.07.55.17.55.58a2.49,2.49,0,0,1-.32.83c-.21.17-.46,0-.67,0l.63.39-.49,0,.16.12-.41.13c-.1,0-.2-.22-.28-.17-.35.21-.45.3-.4.46h.49a1.77,1.77,0,0,1,0,.76.41.41,0,0,1-.15.2c-.13.08-.3,0-.56.06a3,3,0,0,0-1.43.54l1.36-.08a3.47,3.47,0,0,0,1-.42c0,.25.26.85.15,1s-.11.3-.23.37a2.38,2.38,0,0,0-.25.11.25.25,0,0,0-.11.14c-.09.3-.13.43-.27.51a1.41,1.41,0,0,1-.4.13c-.32.07-.62.16-.94.24l.7-.06v.18a1,1,0,0,1,.2-.19.78.78,0,0,1,.41-.07c.19,0,.54.07.41.31a.91.91,0,0,1-.35.37l-.16.09c-.08.05,0,.42,0,.52a4.29,4.29,0,0,0,.25,1.49c.27.52.55,1,.8,1.56.21-.06.6-.29.83-.25a4.45,4.45,0,0,1,1,.7c.22.15.32.18.4.13a2.85,2.85,0,0,0,.28-.3,1.47,1.47,0,0,1,.67-.18,6.45,6.45,0,0,1,1.89-.11c.22,0,.74.17.93.07l.84-.38c.09,0,.57-.35.66-.24l.83,1.15c.38.53,1.17.62,1.76.82a.31.31,0,0,0,.28,0,.89.89,0,0,0,.06-1.12l-.93-.91a3.18,3.18,0,0,0-.77-.35c.14-.41.56-1,.52-1.47a2,2,0,0,0-1.05-1.35,5.22,5.22,0,0,1-.89-.24c-.43-.17-.46-.11-.41-.5s.12-.41-.28-.72c-.21-.17-.53-.34-.62-.59a1.45,1.45,0,0,0-.63-.83c-.25-.2-.17-.36,0-.54a1.82,1.82,0,0,1,.59-.23,1.78,1.78,0,0,0,.5-.17.59.59,0,0,0,.21-.22.43.43,0,0,1,.14-.15c.14-.08.31,0,.59,0s.62,0,.78.1.48.3.69.17a1.21,1.21,0,0,1,.73-.2c0,.26,0,.36.23.56a1.5,1.5,0,0,1,.49.6l.17-.1c0,.2-.11.6.16.65-.08-.2,0-.31.05-.37a1.32,1.32,0,0,1,.65-.05,1.28,1.28,0,0,0,.65,0c.12-.08.14-.23,0-.55h.26a1.77,1.77,0,0,0-.35-.9c-.18-.16-.21-.66,0-.77a2.17,2.17,0,0,1,.2.34c.44-.23,1.41.5,1.9.74a4.61,4.61,0,0,1,1.11.55c.1.12,0,.43.15.54l.43.06a2.22,2.22,0,0,1,.57.07c.18.09.17.31.35.22a1.31,1.31,0,0,1,.9-.23c.29,0,.78,0,.44.29a3.47,3.47,0,0,0-.51.61,1.15,1.15,0,0,0,.38-.38c0,.25-.26.47-.39.63s.13.4.19.36a.6.6,0,0,1,.13-.38c.07-.1,0-.14,0-.22a1.15,1.15,0,0,1,.4-.46.35.35,0,0,1-.27,0c.18-.12.4-.21.55-.1s0,.28.25.38c0-.17,0-.25.08-.3a1.57,1.57,0,0,1,.41-.1c.24,0,.38.4.43.54S158.16,153,158.2,153.34Zm-33.73,6c-.14-.2.07-.17,0-.31l-.11-.35-.21,0,0-.22,0,0c-.17.11-.12.42-.28.56a1.78,1.78,0,0,1-.26.21.88.88,0,0,1-.4.12c-.1-.26.17-.51.27-.7a1.49,1.49,0,0,0-.53.14,1,1,0,0,0-.28.31c-.14.22-.3.44-.46.65s-.4.41-.56.65-.59.46,0,.5l0-.15-.1-.06a1.2,1.2,0,0,1,.33-.27,1.41,1.41,0,0,1,.38-.17l-.11-.07.19-.14a1.19,1.19,0,0,1,.67-.17.23.23,0,0,1-.14.24l-.17.08-.18.08-.08.06a1.09,1.09,0,0,1,.39.09.83.83,0,0,0-.16.33c.33.1.06.29,0,.39.28,0,.4-.18.65-.21h0c.12-.07,0-.46.09-.59a.35.35,0,0,1,.15-.18c.14-.09.31-.06.23.18s0,.25,0,.32l-.13.21a.2.2,0,0,0,.16,0c.1-.06.12-.23.15-.4a.57.57,0,0,1,.19-.43l.07,0a.47.47,0,0,0-.41-.08.34.34,0,0,1,.18-.27,1.53,1.53,0,0,1,.25-.11,1.57,1.57,0,0,0,.24-.11.2.2,0,0,0,.1-.25l-.14.11m5.68.23,0-.25a1.73,1.73,0,0,0-.66.22.67.67,0,0,0-.32.4,4.86,4.86,0,0,0,0,.49.54.54,0,0,1-.23.47l-.11.08a.57.57,0,0,1-.64,0c-.08-.06-.32.21-.55.09l-.45.07h.51c.1.32.79.19.52.47l0,0-.06,0-.07,0a.11.11,0,0,0,0,.12c0,.17.1.19,0,.32h.11a.15.15,0,0,1-.08.11c-.08,0-.2.06-.29.11l.07.07c-.13.08-.29.08-.42.15h0a1.76,1.76,0,0,0,1.17-.19l.06,0c.23-.14.69-.58.43-.73.06-.33.24-.34.38-.59a2,2,0,0,0,.1-.6l-.09.07a.89.89,0,0,1,.18-.51c.12-.13.27-.12.28-.34a.29.29,0,0,1-.09.1.53.53,0,0,1-.14,0l.24-.26-.07,0a.36.36,0,0,1-.25.06l.23-.13a.5.5,0,0,0-.17.06,1.28,1.28,0,0,0-.39.68c-.11-.24.12-.61.39-.78a.37.37,0,0,1,.49,0m11.7,5,.13,0c-.21-.13-.21-.4-.4-.43a2.32,2.32,0,0,1-.61-.34c-.26-.18-1.43-.89-1.33-1.11h-.06c0,.11,0,.12-.1.18a.32.32,0,0,1,0-.32l-.16,0c.06.33.13.4.43.43a1.08,1.08,0,0,0-.41.09.17.17,0,0,0-.06.24c.21.49.22.37.57.27-.28.29.46.46.69.58h.17c-.12-.19-.07-.11,0-.23l.09.16,0-.11c.17,0,.28.18.37.32,0-.08,0-.18,0-.22l.06,0,.16.34.09-.18a.59.59,0,0,0,.28.62c.05,0,.09.05.11,0s0-.2-.06-.27" fill="#fff"/></g><path d="M254.2,82a3.41,3.41,0,0,1,1.1-.12c.09.23,0,.36-.05.42a.59.59,0,0,1-.47,0,.24.24,0,0,0-.22,0,1,1,0,0,0-.14.12,1,1,0,0,1-.15.12.36.36,0,0,1-.26.05c-.11,0-.37-.16-.34-.31s0-.06.08-.09S254.13,82,254.2,82Z" fill="#fff"/><path d="M203.52,139.74c0,.19-.16.41.12.56a2.41,2.41,0,0,1-.46.42c-.18.11-.35.13-.41-.14,0-.08.05-.15.14-.21a1.76,1.76,0,0,1,.29-.13h0C203.35,140.15,203.43,139.89,203.52,139.74Z" fill="#fff"/><path d="M200.33,142.23l-.21.13a3.19,3.19,0,0,1-1.06.43l-.07-.29a1,1,0,0,0,.6-.1l.14-.1.06,0C199.95,142.16,200.23,142.08,200.33,142.23Z" fill="#fff"/><g style="isolation:isolate"><path d="M189.76,142.73a1.46,1.46,0,0,0,.09-.41c0-.15-.19-.18-.09-.29a2.51,2.51,0,0,1,.59.94h0C190.2,143.07,189.72,142.95,189.76,142.73Z" fill="#fff"/><path d="M190.62,143.79c-.16-.15-.33.06-.45-.23l.17,0a.87.87,0,0,1,.28-.41c.1-.06.22,0,.35.16l.44.73c.15.24-.11.23,0,.36s.07.19,0,.22a.36.36,0,0,1-.23,0c-.29-.06-.14-.18-.27-.41l-.2-.07Z" fill="#fff"/></g><path d="M188.52,145.43c.06,0,.15,0,.32.07,0,.12,0,.22-.07.33l-.42-.05C188.43,145.61,188.44,145.48,188.52,145.43Z" fill="#fff"/><path d="M185.08,178.91l2.22-.4a3.58,3.58,0,0,1,1.08,0l-4,2.48L183,179.28Z" fill="#fff"/><path d="M158.27,154.58c-.11-.36-.13-1,.17-1.14a.46.46,0,0,1,.15-.06c.05.16.09.32.13.49s-.1.37.08.61l-.48.29Z" fill="#fff"/><path d="M131.68,172.95a1,1,0,0,1-.31.09,7.72,7.72,0,0,1-2.38-.21l.91-.56a1.11,1.11,0,0,1,.47.17c.18.09.28.18.45.15s.29-.1.42,0C131.64,172.73,131.83,172.86,131.68,172.95Z" fill="#fff"/><path d="M128.68,172.51c.18-.11.38-.07.68-.13a3.45,3.45,0,0,1,.55-.12l-.91.56-.49-.15A.71.71,0,0,1,128.68,172.51Z" fill="#fff"/><path d="M125.53,171.46a3.94,3.94,0,0,0,.8.87l.34.08a.1.1,0,0,1,0,.1c-.27.17-1.55-.49-1.75-.8,0,0,.1-.15.24-.24S125.44,171.32,125.53,171.46Z" fill="#fff"/><path d="M107.9,175.75c0,.16.12.1.2.17l.07.07-.07.05c-.09.05-.16.1-.12.2a1.12,1.12,0,0,1-.76,0l.09,0a.7.7,0,0,0,.19-.19.88.88,0,0,1,.19-.2A.57.57,0,0,1,107.9,175.75Z" fill="#fff"/><path d="M202.7,92.1c-.19.12-.37.32-.5.41l-.58-.09c0-.12-.24-.58-.17-.67s.41-.34.35-.46c-.15-.33-.24-.4-.06-.63s.32-.39.48-.59-.2-.24.07-.41l0,0c.28-.15,1.1.07,1.46.1-.27.34-.31.29.1.67.19.18.56-.07.76-.13,0,.2,0,.39,0,.58.15-.23.22-.43.4-.54a.67.67,0,0,1,.35-.09c.22,0,.23.3.3.48s.37.32.5.42a1.82,1.82,0,0,1-.43.45,1,1,0,0,1-.39.13,1.65,1.65,0,0,0-.67.22,3.75,3.75,0,0,0-.38.28l0,0c-.31.19-.71-.09-1.13-.24A.46.46,0,0,0,202.7,92.1Z" fill="#fff"/><path d="M206.65,92.26c0-.13,0-.25,0-.38a5.79,5.79,0,0,1-.12-1.3.59.59,0,0,1,.27-.52,1.15,1.15,0,0,1,.43-.14l-.06.32a3.75,3.75,0,0,1,.32-.27.22.22,0,0,1,.16,0c.32.1.45.18.71.06.11-.06.54.13.51.26a.71.71,0,0,1-.24.47l-.62.59,0,0a.45.45,0,0,1-.22,0,.54.54,0,0,0-.2,0h0c-.14.2-.31.66-.59.83A.38.38,0,0,1,206.65,92.26Z" fill="#fff"/><g style="isolation:isolate"><path d="M229.48,83.27c-.19,0-.94,0-1.09-.1a.36.36,0,0,1,0-.54c.1-.06.22,0,.37.14a.44.44,0,0,1,.23-.32l.31-.16.14.19a1.2,1.2,0,0,1,.29-.31.87.87,0,0,1,.28-.1l.41-.1.21.35a3.31,3.31,0,0,1-.9.79Z" fill="#fff"/><path d="M225.81,85.59c-.17.11-.44,0-.66,0s-.61-.11-.72-.35a1.17,1.17,0,0,1,0-1,.25.25,0,0,1,.13-.17c.32-.2,1.13,0,1.46-.08-.23-.23-.44-.31-.31-.54l.05-.05a1.41,1.41,0,0,1,.47-.09l1.68-.27a1.16,1.16,0,0,1-.12.57.33.33,0,0,1-.13.17,1,1,0,0,1-.37.07l.4.19-.39.4c-.06,0-.16,0-.26,0s-.2-.08-.25-.06h0c-.14.21-.22.5-.4.61a.4.4,0,0,1-.4,0c.12.39.14.4-.13.61Z" fill="#fff"/></g><path d="M227.6,86.13a5.38,5.38,0,0,0-.51.44l.22-.68c-.2,0-.73,0-.59-.4a.32.32,0,0,1,.13-.18c.15-.09.38,0,.54.18l.72-.05a.83.83,0,0,1,.76.29l-.32.23a.82.82,0,0,1-.63.11A.45.45,0,0,0,227.6,86.13Z" fill="#fff"/><path d="M292.82,140.95c0,.06.18.16.12.19h-.06a.35.35,0,0,0-.15.05.19.19,0,0,0-.06.32,3,3,0,0,1,.38,1.2c0,.21,0,.33-.1.39a.88.88,0,0,1-.45.07c0-.21,0-.7-.27-.87l-.41.07a3.58,3.58,0,0,1-.51-.1,1.07,1.07,0,0,0-.06-.85c-.1-.28-.43-.42-.55-.72l0,0c-.21.13-.94-.47-1.19-.61l0,.15c-.24-.15-.48-.29-.72-.43.21-.06.44.07.66,0,.47-.07.25,0,.62.27a1.39,1.39,0,0,0,.35.15c.13.06.16.25.28.32s.24.09.29.06,0-.23-.12-.39c.34,0,.55.54.82.46a2,2,0,0,0,.44-.16c.12-.07.18-.18.27-.43C292.71,140,292.85,140.7,292.82,140.95Z" fill="#fff"/><path d="M292.18,148.12c.61.07.17.24.14.46C292.31,148.37,292.08,148.25,292.18,148.12Z" fill="#fff"/><path d="M292,143.62c0-.16.07-.31.11-.47l.56.43c0,.34,0,.68,0,1s.05.36.4.56a.31.31,0,0,1-.34-.07,1.27,1.27,0,0,0,0,1.15,5.15,5.15,0,0,1,.2,1.27.29.29,0,0,1-.16.28,1,1,0,0,1-.72.1c-.19-.06-.82.47-.84,0l-.07-1.44c0-.15.19-.36.26-.47a2.15,2.15,0,0,0,.14-.55,2.12,2.12,0,0,0,.1-.58c0-.19-.22-.42-.23-.6s.14-.19,0-.48-.07-.33,0-.56A1.73,1.73,0,0,1,292,143.62Z" fill="#fff"/><path d="M281.08,149.74c.56-.12,1.35,1.67.91,1.95l0,0a1.16,1.16,0,0,1-1.21-.15,3.63,3.63,0,0,1-1-1.08l.92-.1.05,0C280.85,150.26,281,149.85,281.08,149.74Z" fill="#fff"/><path d="M249.48,142.47c-.14-.07-.21-.07-.26,0l-.06.05a.24.24,0,0,1-.07.06.25.25,0,0,1-.22,0c.07.07.1.18.16.27-.62-.13-1.22-.29-1.81-.46l-.22-.06a3.81,3.81,0,0,1-1-.35,6.59,6.59,0,0,0-1.23-.75c-.15,0-.24.09-.38,0l-.61-.51c-.35-.28-.7,0-1-.33s-.69-.17-1-.22c-.13,0-1-.33-1-.52t0-.06a5.78,5.78,0,0,1,.79-.23c.4-.18.46,0,.88.18a7.91,7.91,0,0,0,1.06.21,5.59,5.59,0,0,1,1.06.15c.19.08.28,0,.45-.07s.14,0,.37.07.24-.12.41.1.33,0,.52.13,0,.27.2.44.36,0,.47,0,.36.3.45.37.32.05.31.3a.31.31,0,0,1,.14-.23.52.52,0,0,1,.7.31,1.28,1.28,0,0,0,.08.18C248.95,141.75,249.3,142.12,249.48,142.47Z" fill="#fff"/><path d="M253.58,141.22c.26-.16.35.27.7.4l-.67.07-.15.11c-.17.1-.33.11-.55.22l-.06.15-.3.13a2.32,2.32,0,0,1-.42.09,2.36,2.36,0,0,0-.51.08.79.79,0,0,0-.16.16.6.6,0,0,1-.14.14l0,0c-.28.09-.65.08-1,.2l-.07-.15c-.26.08-.63.26-.62-.21,0-.13,0-.2.05-.24l.07,0a1.22,1.22,0,0,0,.24-.06s.06-.07,0-.15c.15,0,.65-.15.71-.12.42.2.58,0,.93-.16l.15-.06a.08.08,0,0,0,0-.11c-.05-.13-.07-.22,0-.26s.09,0,.18,0a.71.71,0,0,0,.52-.12.52.52,0,0,0,.17-.16.49.49,0,0,0,.69.2l.07-.05Z" fill="#fff"/><path d="M249.54,129.7l.2-.15a1,1,0,0,1,.83.11c.15.08.21.55.35.73s.31.28.2.37l0,0c-.09.06-.17-.09-.3-.08-.37,0-.31-.43-.32-.68a.6.6,0,0,1-.19.24C250.07,130.39,249.86,130.07,249.54,129.7Z" fill="#fff"/><path d="M252.27,129.84c.08-.05.21.07.27.18v.16l.14,0,.12.17c.2-.1.44.51.52.67h-.11l.22.31c-.24-.11-.3-.33-.55-.43-.09.33.14.39.35.58s.16.32.09.36-.13,0-.19-.17l0,0a.12.12,0,0,1,0,.17.73.73,0,0,1-.6-.06c-.26-.18-.32-.75-.66-.54l-.07.05.16.2c-.15,0-.11,0-.24-.1,0,.11,0,.08,0,.22-.12-.11-.18-.14-.21-.12s.08.49.06.59c-.44-.18-.27-.64-.12-.82s-.2-.34,0-.45h0c.18-.1.37.11.37.3.1-.15,0-.43.13-.51a.19.19,0,0,1,.12,0c-.12-.12-.16-.23-.09-.27a.2.2,0,0,1,.11,0c0-.08,0-.1,0-.12l.12,0-.35-.35a.47.47,0,0,1,.45.11Z" fill="#fff"/><path d="M248.59,130.48l.22,0c.05.11.35.34.34.37s-.19.41-.11.55c.27.48,0,.74-.15,1.15a2.87,2.87,0,0,1,0-1.09A1.51,1.51,0,0,0,248.59,130.48Z" fill="#fff"/><path d="M241.93,129.51c0,.07.11.09,0,.15h0a.49.49,0,0,1-.28.07c-.32,0-.31-.08-.54-.37.1-.27.06-.62.3-.77a.55.55,0,0,1,.28-.07l-.06-.11c.15-.06.28,0,.37.2h0c-.14.09,0,.32.08.48S242,129.4,241.93,129.51Z" fill="#fff"/><path d="M183.95,133.87a.16.16,0,0,1,.19,0c.16-.05.37.15.24.29h0c-.1.06-.44-.07-.54-.16A.42.42,0,0,1,183.95,133.87Z" fill="#fff"/><path d="M168.19,175.1c-.22-.14-.15-.25,0-.33a4.31,4.31,0,0,1,.42-.19l.13,0a.61.61,0,0,1-.25.5A.24.24,0,0,1,168.19,175.1Z" fill="#fff"/><path d="M155.75,156.78a1.82,1.82,0,0,1,1.47-.22.35.35,0,0,1-.16.22,2.58,2.58,0,0,1-1.38,0Z" fill="#fff"/><path d="M175.85,137.34c-.21,0-.24-.23-.31-.29l-.1,0,.19-.09C175.64,137.09,175.74,137.19,175.85,137.34Z" fill="#fff"/><path d="M178.07,122.45c.24,0,.38.15.29.37l-.31.11C178.05,122.77,178.06,122.61,178.07,122.45Z" fill="#fff"/><path d="M179.76,120.16a.18.18,0,0,1-.11,0l-.15-.11.18-.13C179.79,120,179.82,120.12,179.76,120.16Z" fill="#fff"/><path d="M187,99.8a1.69,1.69,0,0,1-.6.88l-1,.26c0-.52.2-.55.59-.82l0,0A3.09,3.09,0,0,1,187,99.8Z" fill="#fff"/><path d="M186.82,99.13l-.36.57-.76.32c.12-.33.23-.66.33-1a.64.64,0,0,1,.28-.39,2.65,2.65,0,0,1,.49-.2l-.53.59Z" fill="#fff"/><path d="M188.58,100.3l-.13.26-.32,0c.07-.08.12-.19.21-.24A.22.22,0,0,1,188.58,100.3Z" fill="#fff"/><path d="M190,98c-.22.23-.46.46-.67.7l-.32-.08c0-.15,0-.23.07-.27a.58.58,0,0,1,.16-.06.67.67,0,0,0,.16-.06.23.23,0,0,0,.09-.11c0-.1-.11-.31-.08-.42a.33.33,0,0,1,.14-.12l.1-.06.14-.1C190,97.75,190.2,97.82,190,98Z" fill="#fff"/><path d="M188,99.86c-.14.09-.27-.08-.44-.19a3.64,3.64,0,0,1,.6-.88l0,0c.21-.13.74-.05.72.24a1,1,0,0,1-.31.72.24.24,0,0,1-.22,0,.25.25,0,0,0-.25,0l-.15.1Z" fill="#fff"/><path d="M223.51,144.05a17.52,17.52,0,0,1-3.48-.35,18.52,18.52,0,0,1-12.45-9.31,24.58,24.58,0,0,1,6.24-30.83,18.16,18.16,0,0,1,27.54,5.58,23.87,23.87,0,0,1,2.46,16.54C241.64,136.46,232.93,144.05,223.51,144.05Zm1.9-40.69a15.13,15.13,0,0,0-9.22,3.28A20.7,20.7,0,0,0,211,132.48a14.7,14.7,0,0,0,9.84,7.42c8.57,1.74,17.19-5,19.21-15a20,20,0,0,0-2-13.86,14.7,14.7,0,0,0-9.84-7.42A13.76,13.76,0,0,0,225.41,103.36Z" fill="#68e1fd"/><path d="M242.66,129.69l31.19,15.38s1.25,4.08-1.46,5.11-34.44-16.09-34.44-16.09" fill="#68e1fd"/><g opacity="0.25"><path d="M223.51,144.05a17.52,17.52,0,0,1-3.48-.35,18.52,18.52,0,0,1-12.45-9.31,24.58,24.58,0,0,1,6.24-30.83,18.16,18.16,0,0,1,27.54,5.58,23.87,23.87,0,0,1,2.46,16.54C241.64,136.46,232.93,144.05,223.51,144.05Zm1.9-40.69a15.13,15.13,0,0,0-9.22,3.28A20.7,20.7,0,0,0,211,132.48a14.7,14.7,0,0,0,9.84,7.42c8.57,1.74,17.19-5,19.21-15a20,20,0,0,0-2-13.86,14.7,14.7,0,0,0-9.84-7.42A13.76,13.76,0,0,0,225.41,103.36Z"/><path d="M242.66,129.69l31.19,15.38s1.25,4.08-1.46,5.11-34.44-16.09-34.44-16.09"/></g><path d="M259.67,138.73q-2.77-1.41-5.46-3a21.86,21.86,0,0,0-1.06-2,2.8,2.8,0,0,0-2.87-1.52,1,1,0,0,0,.07,1.91l.15.18c-2.23.1-6.25.43-5.34,2.63a1.69,1.69,0,0,0-.23.22,1.41,1.41,0,0,0,.13,1.93,1.63,1.63,0,0,0,1.52.41,1.53,1.53,0,0,0,2,.73l.55-.17a.86.86,0,0,0,1,1l1.84-.36c4.18,1.33,6.26,1.81,7.83,2.88.65.44,0,.61,0,0a.87.87,0,0,0-.2-1.26l-.18-.13a.89.89,0,0,0,.15-1.29l-.22-.26A1,1,0,0,0,259.67,138.73Z" fill="#ff7d09"/><path d="M281.07,202.91l1,14.37-1.8,1.56-2-.52s.26-3.8-.44-4.64-1.9,3.3-2.58,3.27-8.82-2.2-8.94-3.19c-.16-1.33,1.67-2.84,5.13-2,3.74.91,4.39-3.3,5-7.34" fill="#f8997c"/><path d="M275.23,205.78s3.55,1.51,9.65-2.39c0,0-2.11-19.06-1.93-22.34s3.85-27-.68-32.2-12.65,45-12.26,45.3" fill="#9e005d"/><path d="M278.19,214.23l-.34-.56a2,2,0,0,0-2-.47c-1,.46-.84,3.87-.84,3.87l3.39-1.27A3.7,3.7,0,0,0,278.19,214.23Z" fill="#9e005d"/><path d="M270,210l-.35,14.4-1.94,1.38-1.94-.71s.62-3.76,0-4.66-2.2,3.1-2.88,3-8.58-3-8.6-4c0-1.34,1.93-2.67,5.29-1.51,3.64,1.26,4.69-2.87,5.66-6.83" fill="#f8997c"/><path d="M266.06,221l-.28-.59a2,2,0,0,0-1.92-.66c-1,.36-1.2,3.77-1.2,3.77l3.5-.94A3.7,3.7,0,0,0,266.06,221Z" fill="#9e005d"/><path d="M268.82,154.47s-6,16.25-7.4,23.3-1.42,33.44-.93,34.15,6.35,2,10.3,1.89,3.41-31.2,3.41-31.2,10.76-27.27,7.89-30.27S268.82,154.47,268.82,154.47Z" fill="#9e005d"/><path d="M268.58,154.77c5.47,1.73,12.42-.34,15.76-5-.63-7.69-2-20.41-3.93-22.32-2.86-2.76-9,1.16-11.28,5-1.16,2-3.33,9.05-3.33,9.05l-8.42-4.8-2.56,6s5.77,10.88,13.57,8.4Z" fill="#5fad00"/><path d="M273.85,140.66a.32.32,0,0,0-.64,0c0,2.45-.07,5.06-1.26,7.26a6.09,6.09,0,0,1-4.84,3.42c-.41,0-.41.66,0,.64a6.67,6.67,0,0,0,5.26-3.5C273.74,146.13,273.86,143.3,273.85,140.66Z" fill="#fff"/><path d="M270.9,113.43c-.44.1-1.15.8-2.22,3.31s1.49,5.71,2.6,6.38,2.72,3.29,2.72,3.29,4.08,1,6.83-4S277.53,112,270.9,113.43Z"/><path d="M269.75,116.22s-2.06,8.36,1,10.27,7.12-3.16,7.52-5.19S276.41,114.9,269.75,116.22Z" fill="#ff7d09"/><path d="M269.75,116.22s-.51,5.46,2.32,6.66S275,125.8,275,125.8s5.17-2.77,5.71-5.21S273.7,114,269.75,116.22Z"/><path d="M279.25,122.79c-1,8.19,1,18.67-2.37,26.36-.21.47-.66,2.6-1,2.6l8.26-4.5c3.31-2.05,5.72-3.37,4.54-8.58s-7.85-16.27-7.85-16.27Z"/><path d="M266.65,137.38a63.1,63.1,0,0,0-1.22,6.59c-.05.41.59.41.65,0a61.5,61.5,0,0,1,1.2-6.41C267.37,137.15,266.75,137,266.65,137.38Z" fill="#fff"/><path d="M278.28,126.49l-.77-1.66a36.64,36.64,0,0,1-4.73,2c-1.94.59-1.4,2.83-1.4,2.83S275.9,129.7,278.28,126.49Z" fill="#5fad00"/><path d="M281.76,155.75c-.94,5-2.09,9.87-3.5,14.71-1.33,4.56-3.14,9-4.21,13.62a110.65,110.65,0,0,0-1.81,13.4l-1.6,15.2c-.07.64.93.63,1,0l1.5-14.25c.53-5,.84-10.09,2.09-15,1.14-4.46,2.85-8.77,4.12-13.19,1.35-4.7,2.46-9.45,3.37-14.26C282.85,155.39,281.88,155.12,281.76,155.75Z"/><path d="M335.26,148.88c-6.63-.57-13.62-2.58-18.52-7.12v19.67a20.41,20.41,0,0,0,20.41,20.41h0a20.41,20.41,0,0,0,20.41-20.41v-20C350.59,144.27,342.69,149.53,335.26,148.88Z" fill="#68e1fd"/><ellipse cx="337.15" cy="141.64" rx="20.41" ry="10.82" fill="#5ed18d"/><path d="M337.15,143.47s-13.88-2-17.55-24.49C319.59,119,331.43,125.51,337.15,143.47Z" fill="#5ed18d"/><path d="M339.19,140.61s-15.92-28.57,0-47.75A80,80,0,0,1,339.19,140.61Z" fill="#5ed18d"/><path d="M337.15,122.66s-13.88-2-17.55-24.49C319.59,98.17,331.43,104.7,337.15,122.66Z" fill="#5ed18d"/><path d="M338.83,131.81s-3.48-13.59,15.81-25.65C354.64,106.16,353.19,119.6,338.83,131.81Z" fill="#5ed18d"/><ellipse cx="337.15" cy="141.64" rx="20.41" ry="10.82" fill="#146666"/><path d="M337.15,143.47s-13.88-2-17.55-24.49C319.59,119,331.43,125.51,337.15,143.47Z" fill="#5ed18d"/><path d="M339.19,140.61s-15.92-28.57,0-47.75A80,80,0,0,1,339.19,140.61Z" fill="#5ed18d"/><path d="M337.15,122.66s-13.88-2-17.55-24.49C319.59,98.17,331.43,104.7,337.15,122.66Z" fill="#5ed18d"/><path d="M338.83,131.81s-3.48-13.59,15.81-25.65C354.64,106.16,353.19,119.6,338.83,131.81Z" fill="#5ed18d"/></g></g></svg>